<?xml version="1.0" encoding="utf-8"?>
<!-- Generator: Adobe Illustrator 24.2.0, SVG Export Plug-In . SVG Version: 6.00 Build 0)  -->
<svg version="1.1" id="Layer_1" xmlns="http://www.w3.org/2000/svg" xmlns:xlink="http://www.w3.org/1999/xlink" x="0px" y="0px"
	 viewBox="0 0 1000 242" style="enable-background:new 0 0 1000 242;" xml:space="preserve">
<style type="text/css">
	.st0{fill-rule:evenodd;clip-rule:evenodd;fill:#333333;}
	.st1{fill:url(#SVGID_1_);}
</style>
<g id="NZN__x2022__Black_H_8_">
	<g>
		<g>
			<path class="st0" d="M4.42,7.69h29.59c12.17-0.06,25.14,8.02,38.92,24.24c2.24,2.4,4.39,4.99,6.44,7.76l73.03,96.58V7.69h51.79
				v214.57h-29.59c-13.9,0.06-28.57-10.07-44.01-30.4L56.21,93.48v128.78H4.42V7.69z M248.58,57.02V7.69h199.77v30.25
				c0,6.89-2.36,14.2-7.09,21.92c-5.11,8.55-12.71,17.62-22.79,27.19l-89.93,85.88h119.8v49.33H248.58V192.1
				c-0.06-6.96,2.08-14.1,6.42-21.44c1.47-2.49,3.1-4.98,4.88-7.47c4.66-6.25,10.31-12.61,16.95-19.05l91.46-87.12H248.58z
				 M640.72,7.69h51.79v214.57h-30.25c-13.91,0.06-28.49-10.07-43.74-30.4l-73.99-98.38v128.78h-51.79V7.69h30.3
				c13.76-0.06,28.71,10.61,44.83,32.01l72.84,96.58V7.69z"/>
		</g>
	</g>
</g>
<linearGradient id="SVGID_1_" gradientUnits="userSpaceOnUse" x1="885.625" y1="18.4289" x2="867.5284" y2="215.23">
	<stop  offset="0.2527" style="stop-color:#6EC4E9"/>
	<stop  offset="1" style="stop-color:#005CB9"/>
</linearGradient>
<path class="st1" d="M993.55,114.86L956,77.31c-1.93-1.93-5.05-1.93-6.97,0l-27.09,27.09V38.87c0-1.09-0.45-2.27-1.12-3.13
	c-0.13-0.16-0.26-0.32-0.4-0.46L880.18-5.07C878.25-7,875.14-7,873.2-5.08l-40.61,40.46c-0.02,0.02-0.04,0.05-0.06,0.07
	l-72.59,72.59c-0.92,0.92-1.45,2.18-1.45,3.49c0,1.31,0.52,2.56,1.45,3.49l37.56,37.56c0.92,0.92,2.18,1.45,3.49,1.45
	s2.56-0.52,3.49-1.45l26.66-26.66v65.3c0,1.31,0.52,2.57,1.46,3.5l40.61,40.35c0.96,0.95,2.22,1.43,3.48,1.43
	c1.26,0,2.53-0.48,3.49-1.45l39.42-39.49c0.36-0.21,0.71-0.45,1.01-0.76l72.94-72.94C995.48,119.91,995.48,116.79,993.55,114.86z
	 M876.67,5.39l35.39,35.5v62.91l-31.89-31.89c-1.92-1.93-5.05-1.93-6.97,0L841,104.1V40.92L876.67,5.39z M910.32,116.01
	l-33.64,33.64l-33.64-33.64l33.64-33.64L910.32,116.01z M800.99,142.1l-30.58-30.58l60.73-60.73v61.16L800.99,142.1z M876.67,224.57
	L841,189.14v-61.23l32.19,32.19c0.96,0.96,2.23,1.45,3.49,1.45s2.53-0.48,3.49-1.45l31.89-31.89v60.9L876.67,224.57z M921.93,179.51
	v-61.16l30.58-30.58l30.58,30.58L921.93,179.51z"/>
</svg>
