<svg xmlns="http://www.w3.org/2000/svg" width="353.552" height="267.515" viewBox="0 0 353.552 267.515"><defs><style>.a{fill:#e8e8e8;}.b,.j{fill:#161616;}.c{fill:#ec615b;}.d{fill:#2944d9;}.e{fill:#5222d0;}.f{fill:#fff;}.g,.h,.i,.k,.l,.m,.n{fill:#494949;}.g{opacity:0.15;}.h{opacity:0.11;}.i{opacity:0.08;}.j{stroke:#161616;stroke-miterlimit:10;stroke-width:2px;}.k{opacity:0.09;}.l{opacity:0.13;}.m{opacity:0.1;}.n{opacity:0.17;}</style></defs><g transform="translate(-184.716 -143.22)"><g transform="translate(184.716 144.577)"><g transform="translate(10.533 56.044)"><path class="a" d="M223.214,365.09c4.964-4.044,11.686-4.63,17.822-3.514,6.554,1.171,12.523,4.323,18.575,6.972a54.376,54.376,0,0,0,19.467,5.076,68.433,68.433,0,0,0,20.3-2.287c13.861-3.486,26.579-10.18,39.883-15.228a96.522,96.522,0,0,1,20.639-5.745,46.16,46.16,0,0,1,11.6-.279,80.636,80.636,0,0,1,10.877,2.148,195.266,195.266,0,0,0,24.013,4.686,167,167,0,0,0,25.324,1.06c.53-.028.53-.865,0-.837a163.943,163.943,0,0,1-45.572-4.8c-7.112-1.785-14.168-3.626-21.559-3.263-7.168.363-14.252,2.259-21,4.574-13.527,4.658-26.244,11.491-39.966,15.646a76.14,76.14,0,0,1-21.5,3.57,51.877,51.877,0,0,1-21.168-4.658c-6.694-2.9-13.248-6.5-20.527-7.614-6.192-.948-12.8-.2-17.794,3.877-.418.363.167.976.586.614Z" transform="translate(-222.484 -349.035)"/></g><g transform="translate(161.27 39.016)"><path class="a" d="M763.163,295.572c19.328,8.339,41.277,6.945,61.051.892,10.71-3.291,21.364-7.7,32.771-7.67,11.491.028,22.4,4.044,33.635,5.829,10.208,1.618,21.447,1.422,30.2-4.713.446-.307.028-1.032-.418-.725-8.088,5.662-18.352,6.164-27.834,4.881-10.738-1.45-21.057-5.188-31.906-5.968s-21.085,2.482-31.265,5.829c-10.152,3.319-20.416,5.913-31.1,6.526-11.825.7-23.79-.892-34.7-5.606-.5-.223-.92.5-.446.725Z" transform="translate(-762.955 -287.981)"/></g><g transform="translate(0 98.062)"><g transform="translate(0 0)"><path class="a" d="M185.325,517.766a43.138,43.138,0,0,1,20.806-7.753,41.711,41.711,0,0,1,11.184.418,70.84,70.84,0,0,1,11.156,3.235c6.777,2.343,13.5,4.128,20.639,2.482,6.164-1.422,11.742-4.63,17.208-7.67,6.443-3.6,13.136-7.279,20.611-7.949.53-.056.53-.892,0-.837-13.331,1.2-23.344,11.212-35.783,15.033a27.459,27.459,0,0,1-9.734,1.283,45.031,45.031,0,0,1-11.77-2.817,83.709,83.709,0,0,0-11.658-3.486,42.7,42.7,0,0,0-10.487-.614,43.7,43.7,0,0,0-22.591,7.976c-.446.279-.028,1,.418.7Z" transform="translate(-184.716 -499.69)"/></g></g><g transform="translate(73.846 106.658)"><path class="a" d="M450.191,550.7c10.849-11.463,26.8-16.148,42.225-16.288a122.053,122.053,0,0,1,26.607,3.068c8.311,1.757,16.371,4.044,24.961,2.9,8.981-1.2,17.375-5.048,25.408-9.092.474-.251.056-.976-.418-.725-7.642,3.849-15.59,7.5-24.1,8.841a41.991,41.991,0,0,1-13.08-.084c-4.407-.7-8.7-1.869-13.08-2.789-15.953-3.347-32.938-4.769-48.612.669a51.144,51.144,0,0,0-20.5,12.885c-.363.418.223,1,.586.614Z" transform="translate(-449.491 -530.513)"/></g><g transform="translate(203.529 122.705)"><path class="a" d="M914.759,600.531c4.546,1.59,9.2.112,13.359-1.869,4.658-2.231,9.036-4.992,13.806-6.972s9.9-3.319,15.089-2.677c4.741.586,9.12,2.705,13.276,4.964a107.887,107.887,0,0,0,11.993,6.136,38.217,38.217,0,0,0,14.67,2.566c10.236-.223,18.937-5.327,28.28-8.785,8.729-3.235,20.36-4.685,27.36,2.9.363.39.948-.2.586-.586-5.494-5.941-14.252-6.61-21.782-5.02-9.817,2.064-18.3,8.06-28.169,9.985a37.789,37.789,0,0,1-16.009-.363c-4.853-1.171-9.2-3.458-13.555-5.885-3.932-2.2-7.921-4.49-12.244-5.8a25.755,25.755,0,0,0-13.722-.279c-5.55,1.367-10.654,4.072-15.646,6.805-5.16,2.789-11.128,6.192-17.124,4.1-.446-.2-.669.614-.167.781Z" transform="translate(-914.473 -588.05)"/></g><g transform="translate(276.855 137.735)"><path class="a" d="M1177.781,652.833c11.546.7,21.057-7.14,31.962-9.51a23.458,23.458,0,0,1,8.925-.418,20.672,20.672,0,0,1,7.335,2.928c3.932,2.4,7.754,5.494,12.551,5.829,5.829.391,10.989-3.235,15.339-6.638.418-.335-.167-.92-.586-.586-4.239,3.291-9.315,6.889-15,6.359-4.937-.446-8.841-4.016-13-6.331-9.566-5.355-19.8-1.143-28.978,2.9-5.885,2.566-11.993,5.048-18.519,4.658-.558-.056-.558.781-.028.809Z" transform="translate(-1177.387 -641.939)"/></g><g transform="translate(13.282 187.487)"><path class="a" d="M233.053,834.794a16.378,16.378,0,0,1,15.423-3.877c5.634,1.534,9.259,6.387,13.778,9.734,9.008,6.666,21.28,5.606,31.181,1.673,11.686-4.63,21.419-13,33.077-17.71a40.944,40.944,0,0,1,18.045-3.375c6.024.418,11.156,3.012,15.925,6.526,4.741,3.486,9.2,7.614,14.754,9.817a21.4,21.4,0,0,0,18.212-1.255c.474-.251.056-.976-.418-.725a20.725,20.725,0,0,1-18.435.809c-4.964-2.2-9.036-5.885-13.359-9.12-4.435-3.319-9.148-5.913-14.726-6.693a38.063,38.063,0,0,0-17.041,2.008c-11.909,3.988-21.726,12.216-33.022,17.487-10.431,4.881-23.846,7.168-33.747-.167-4.936-3.654-8.813-8.869-15.172-10.1a17.244,17.244,0,0,0-15.061,4.379c-.39.362.2.976.586.586Z" transform="translate(-232.338 -820.327)"/></g><g transform="translate(120.531 212.633)"><path class="a" d="M617.5,915.372a24.915,24.915,0,0,1,15.563-3.96c5.02.418,9.761,2.287,14.363,4.156,4.462,1.813,8.981,3.709,13.778,4.49a33,33,0,0,0,14.921-1.283c5.773-1.785,11.128-4.63,16.4-7.5.474-.251.056-.976-.418-.725-9.65,5.215-20.248,10.71-31.571,8.534-9.455-1.813-17.766-7.67-27.5-8.506a25.458,25.458,0,0,0-15.981,4.072c-.418.307,0,1.032.446.725Z" transform="translate(-616.881 -910.488)"/></g><g transform="translate(225.719 209.192)"><path class="a" d="M994.753,925.385a50.146,50.146,0,0,1,21.615-11.881,48.819,48.819,0,0,1,12.55-1.562c4.714.056,9.4.809,14.084,1.255a56.747,56.747,0,0,0,26.328-3.988c8.116-3.151,15.758-8.618,24.487-9.957,10.208-1.562,18.1,5.215,24.6,12.16.363.391.948-.2.586-.586-5.355-5.718-11.658-11.63-19.8-12.551-8.925-1-17.041,4.239-24.794,7.837-8.925,4.156-18.547,7-28.448,6.443-4.937-.279-9.817-1.171-14.782-1.422a48.819,48.819,0,0,0-12.578.948,50.672,50.672,0,0,0-24.432,12.662c-.391.418.2,1,.586.641Z" transform="translate(-994.038 -898.15)"/></g><g transform="translate(62.994 54.026)"><path class="b" d="M410.728,347.964c7.809,6.052,17.989,3.375,26.5.586a109.394,109.394,0,0,1,32.38-5.913.419.419,0,0,0,0-.837,103.593,103.593,0,0,0-30.149,5.132c-8.841,2.873-19.83,6.917-28.141.446-.418-.335-1,.251-.586.586Z" transform="translate(-410.584 -341.8)"/></g><g transform="translate(137.932 0)"><path class="b" d="M679.672,157.573c9.427-.7,18.519-3.319,27.639-5.522,9.483-2.315,18.993-3.849,28.782-2.789,9.873,1.06,19.439,4.044,29.117,6.164a106.166,106.166,0,0,0,28.308,2.538,101.385,101.385,0,0,0,31.348-6.638c.5-.2.279-1-.223-.809a101.785,101.785,0,0,1-57.174,4.518c-9.51-1.98-18.826-4.881-28.448-6.275a76.085,76.085,0,0,0-27.5,1.422c-10.6,2.315-21,5.717-31.85,6.526-.53.084-.53.92,0,.865Z" transform="translate(-679.275 -148.087)"/></g><g transform="translate(288.77 76.171)"><g transform="translate(0 0)"><path class="b" d="M1220.607,424.408c8.144-3.012,16.594,1.283,24.738,2.064a39.968,39.968,0,0,0,13-1c4.183-1,8.255-2.482,12.522-3.124,4.574-.7,9.455-.418,13.415,2.175.446.307.865-.418.419-.725-7.028-4.574-15.619-2.12-23.037-.056a45.284,45.284,0,0,1-14.168,2.064c-4.63-.167-9.064-1.45-13.582-2.4-4.49-.92-9.12-1.422-13.5.2-.53.167-.307.976.2.809Z" transform="translate(-1220.107 -421.201)"/></g></g><g transform="translate(4.246 160.104)"><path class="b" d="M200.682,726.035c7.084-6.3,17.069-.725,24.934.474,9.092,1.394,18.184-1.116,26.858-3.542a.42.42,0,0,0-.223-.809c-9.594,2.677-19.523,5.327-29.48,2.956-7.279-1.729-16.176-5.411-22.7.335-.39.335.2.92.614.586Z" transform="translate(-199.94 -722.142)"/></g><g transform="translate(93.469 237.682)"><path class="b" d="M520.563,1004.931a10.463,10.463,0,0,1,9.259-3.681,20.9,20.9,0,0,1,5.69,1.98,36.069,36.069,0,0,0,4.686,1.673,34.941,34.941,0,0,0,20.834-.725c.5-.167.279-.976-.223-.809a34.275,34.275,0,0,1-23.177-.2c-3.235-1.2-6.247-3.124-9.845-2.845a11.432,11.432,0,0,0-7.837,3.988c-.335.446.279,1.032.614.614Z" transform="translate(-519.853 -1000.302)"/></g><g transform="translate(141.134 237.011)"><path class="b" d="M691.271,1000.91a54.542,54.542,0,0,1,15.59-2.175.419.419,0,0,0,0-.837,56.239,56.239,0,0,0-15.814,2.2c-.5.167-.307.976.223.809Z" transform="translate(-690.757 -997.897)"/></g><g transform="translate(148.113 22.44)"><g transform="translate(0)"><path class="b" d="M715.952,229.341a172.691,172.691,0,0,1,14.168,12.188c.391.363.976-.223.586-.586a177.187,177.187,0,0,0-14.335-12.3c-.418-.363-.837.363-.418.7Z" transform="translate(-715.779 -228.545)"/></g></g><g transform="translate(99.11 29.515)"><path class="b" d="M540.893,262.333c.474-2.622.976-5.243,1.45-7.893.112-.53-.7-.753-.809-.223-.474,2.622-.976,5.243-1.45,7.893-.084.53.725.753.809.223Z" transform="translate(-540.078 -253.914)"/></g></g><g transform="translate(204.135 143.22)"><circle class="c" cx="1.618" cy="1.618" r="1.618" transform="translate(239.702 52.679)"/><circle class="c" cx="1.924" cy="1.924" r="1.924" transform="translate(28.045 185.658)"/><circle class="c" cx="4.407" cy="4.407" r="4.407" transform="translate(16.248 6.353)"/><circle class="c" cx="1.478" cy="1.478" r="1.478" transform="translate(28.018 16.477)"/><circle class="c" cx="3.291" cy="3.291" r="3.291" transform="translate(110.655 260.933)"/><circle class="c" cx="2.901" cy="2.901" r="2.901" transform="translate(263.994 15.111)"/><circle class="c" cx="1.785" cy="1.785" r="1.785" transform="translate(268.819 10.955)"/><circle class="d" cx="4.407" cy="4.407" r="4.407" transform="translate(20.683 1.724)"/><circle class="e" cx="2.203" cy="2.203" r="2.203" transform="translate(20.683 187.694)"/><circle class="e" cx="1.952" cy="1.952" r="1.952" transform="translate(98.384 257.223)"/><circle class="d" cx="4.63" cy="4.63" r="4.63" transform="translate(251.555 1.696)"/><circle class="e" cx="1.004" cy="1.004" r="1.004" transform="translate(178.958 79.062)"/><g transform="translate(167.911 21.019)"><g transform="translate(0)"><path class="e" d="M858.151,218.868c-.586,1.367-1.143,2.761-1.729,4.128-.2.5.614.725.809.223.586-1.367,1.143-2.761,1.729-4.128.2-.5-.614-.725-.809-.223Z" transform="translate(-856.392 -218.585)"/></g></g><g transform="translate(169.406 21.257)"><g transform="translate(0)"><path class="e" d="M861.876,220.153a11.093,11.093,0,0,1,2.371,3.709c.2.5,1,.279.809-.223a12.992,12.992,0,0,0-2.594-4.072c-.362-.39-.976.2-.586.586Z" transform="translate(-861.75 -219.438)"/></g></g><g transform="translate(168.111 25.528)"><path class="e" d="M857.161,235.379a31,31,0,0,0,2.761,4.267c.335.418,1.06,0,.725-.418a34.775,34.775,0,0,1-2.761-4.267.419.419,0,0,0-.725.418Z" transform="translate(-857.108 -234.752)"/></g><g transform="translate(170.971 25.454)"><g transform="translate(0)"><path class="e" d="M868.349,234.768c-.335,1.562-.641,3.124-.976,4.686-.112.53.7.753.809.223.335-1.562.641-3.124.976-4.686.112-.5-.7-.725-.809-.223Z" transform="translate(-867.362 -234.485)"/></g></g><g transform="translate(246.92 140.491)"><path class="e" d="M1141,647.163a11.482,11.482,0,0,0-1.311,3.932c-.084.53.725.753.809.223a10.967,10.967,0,0,1,1.227-3.709c.251-.5-.474-.92-.725-.446Z" transform="translate(-1139.678 -646.955)"/></g><g transform="translate(248.15 140.444)"><path class="e" d="M1144.122,647.291a36.845,36.845,0,0,0,1.924,4.267c.251.474.976.056.725-.418a35.657,35.657,0,0,1-1.841-4.072c-.2-.5-1-.279-.809.223Z" transform="translate(-1144.092 -646.785)"/></g><g transform="translate(246.684 144.608)"><path class="e" d="M1138.908,662.325c.725,1.032,1.422,2.064,2.147,3.1.307.446,1.032.028.725-.418-.725-1.032-1.422-2.064-2.147-3.1-.307-.446-1.032-.028-.725.418Z" transform="translate(-1138.834 -661.716)"/></g><g transform="translate(248.934 144.887)"><path class="e" d="M1147.765,662.907a4.531,4.531,0,0,0-.865,2.705.419.419,0,0,0,.837,0,3.751,3.751,0,0,1,.753-2.287c.307-.446-.418-.865-.725-.418Z" transform="translate(-1146.9 -662.716)"/></g><g transform="translate(12.636 219.447)"><path class="e" d="M301.95,930.261c-.753,1.645-1.506,3.263-2.259,4.909-.223.474.5.92.725.418.753-1.646,1.506-3.263,2.259-4.909.223-.474-.474-.892-.725-.418Z" transform="translate(-299.649 -930.052)"/></g><g transform="translate(15.046 219.373)"><path class="e" d="M308.322,930.292l2.175,5.188c.2.5,1,.279.809-.223l-2.175-5.187c-.2-.5-1-.279-.809.223Z" transform="translate(-308.292 -929.785)"/></g><g transform="translate(12.431 224.635)"><path class="e" d="M298.965,949.335c.753,1.478,1.478,2.984,2.231,4.462a.439.439,0,0,0,.669.084,5.262,5.262,0,0,0,1.171-1.924l1.339-2.677c.251-.474-.474-.893-.725-.418-.39.781-.809,1.562-1.2,2.343a6.15,6.15,0,0,1-1.227,2.064l.669.084c-.753-1.478-1.478-2.984-2.231-4.462-.223-.446-.948-.028-.7.446Z" transform="translate(-298.913 -948.652)"/></g><g transform="translate(293.998 89.815)"><g transform="translate(0 0)"><path class="e" d="M1310.13,465.461a15.6,15.6,0,0,0-1.646,5.215c-.084.53.753.53.837,0a14.378,14.378,0,0,1,1.506-4.8c.279-.474-.446-.892-.7-.418Z" transform="translate(-1308.479 -465.252)"/></g></g><g transform="translate(295.486 90.372)"><g transform="translate(0 0)"><path class="e" d="M1313.865,467.879c.865,1.673,1.7,3.347,2.566,5.02.251.474.976.056.725-.418-.865-1.673-1.7-3.347-2.566-5.02-.251-.474-.976-.056-.725.418Z" transform="translate(-1313.813 -467.252)"/></g></g><g transform="translate(294.029 94.864)"><path class="e" d="M1308.622,483.843a26.392,26.392,0,0,0,2.538,4.713c.307.446,1.032.028.725-.418a23.633,23.633,0,0,1-2.454-4.518c-.2-.474-1-.251-.809.223Z" transform="translate(-1308.592 -483.357)"/></g><g transform="translate(296.647 95.43)"><path class="e" d="M1319.184,485.668a34.462,34.462,0,0,0-1.2,4.8c-.084.53.725.753.809.223a32.614,32.614,0,0,1,1.2-4.8c.167-.5-.641-.725-.809-.223Z" transform="translate(-1317.978 -485.385)"/></g><g transform="translate(291.421 225.126)"><path class="e" d="M1300.233,950.716c-.335,1.116-.641,2.2-.976,3.319a.42.42,0,0,0,.809.223c.334-1.116.641-2.2.976-3.319a.42.42,0,0,0-.809-.223Z" transform="translate(-1299.24 -950.414)"/></g><g transform="translate(292.316 225.397)"><path class="e" d="M1302.491,952.032c.5,1.116,1.032,2.231,1.534,3.319.223.5.948.056.725-.418-.5-1.116-1.032-2.231-1.534-3.319-.223-.5-.948-.084-.725.418Z" transform="translate(-1302.449 -951.388)"/></g><g transform="translate(291.651 228.757)"><path class="e" d="M1300.073,963.955a7.487,7.487,0,0,0,1.729,3.486c.363.418.948-.2.586-.586a6.576,6.576,0,0,1-1.506-3.1c-.112-.558-.92-.335-.809.2Z" transform="translate(-1300.062 -963.435)"/></g><g transform="translate(293.359 228.883)"><path class="e" d="M1306.694,964.168a11.164,11.164,0,0,0-.5,3.57c.028.53.865.53.837,0a9.732,9.732,0,0,1,.474-3.347c.167-.5-.641-.725-.809-.223Z" transform="translate(-1306.189 -963.885)"/></g><g transform="translate(2.568 78.061)"><g transform="translate(0 0)"><path class="e" d="M265.4,423.329c-.614,1.339-1.2,2.677-1.813,4.016-.223.474.5.92.725.418.614-1.339,1.2-2.677,1.813-4.016.223-.474-.5-.92-.725-.418Z" transform="translate(-263.549 -423.108)"/></g></g><g transform="translate(2.691 82.489)"><path class="e" d="M264.022,439.491c.641,1.646,1.255,3.263,1.9,4.909.2.5,1,.279.809-.223-.641-1.646-1.255-3.263-1.9-4.909-.2-.5-1-.279-.809.223Z" transform="translate(-263.992 -438.985)"/></g><g transform="translate(4.36 77.71)"><path class="e" d="M270.038,422.479c.865,1.506,1.729,3.04,2.594,4.546a.419.419,0,0,0,.725-.418c-.865-1.506-1.729-3.04-2.594-4.546a.419.419,0,0,0-.725.418Z" transform="translate(-269.975 -421.852)"/></g><g transform="translate(4.839 82.312)"><g transform="translate(0 0)"><path class="e" d="M274.065,438.561a45.069,45.069,0,0,0-2.343,5.16c-.2.5.614.725.809.223a39.816,39.816,0,0,1,2.259-4.964c.251-.474-.474-.892-.725-.418Z" transform="translate(-271.692 -438.352)"/></g></g><g transform="translate(213.87 100.939)"><path class="e" d="M1021.965,508.2a3.084,3.084,0,0,1,2.845-1.729c1,.028,1.757.725,2.65,1.06,1.562.558,2.036-.446,3.207-1.2,1.59-1.06,3.124,1.311,4.825,1.283.976-.028,1.785-.5,1.813-1.534-.223.112-.418.251-.641.363.865.446,1.729.892,2.566,1.367.474.251.892-.474.418-.725-.865-.446-1.729-.893-2.566-1.367a.438.438,0,0,0-.641.363c-.084,1.98-3.932-.837-4.658-.92-1.645-.223-2.287,1.813-3.709,1.59-1.506-.251-2.454-1.339-4.072-1.06a3.841,3.841,0,0,0-2.789,2.092c-.2.474.5.892.753.418Z" transform="translate(-1021.178 -505.139)"/></g><g transform="translate(224.639 96.964)"><path class="e" d="M1060.491,492.256c1.255-1.395,3.235.363,4.658.53,1.646.2,2.928-1.562,4.518-.669,1.311.753,3.709,2.538,4.658.251.2-.5-.614-.725-.809-.223-.669,1.618-3.068-.642-3.877-.976-1.088-.474-1.813-.084-2.789.39a3.27,3.27,0,0,1-3.124-.139,6.018,6.018,0,0,0-1.562-.5,2.441,2.441,0,0,0-2.259.725c-.363.418.223,1,.586.614Z" transform="translate(-1059.791 -490.886)"/></g><g transform="translate(201.787 29.348)"><g transform="translate(0)"><path class="c" d="M978.761,251.643q.586-1.088,1.339-.586a3.748,3.748,0,0,1,.669.335c.251.112.5.279.753.363a2.441,2.441,0,0,0,1.339.084c1.2-.335,1.813-1.841,3.1-1.813,1.2.028,2.064,1.171,3.319.586.53-.251.893-.7,1.395-.976a3.092,3.092,0,0,1,3.43.39c.418.335,1-.251.586-.586a3.939,3.939,0,0,0-4.434-.53c-.641.363-1.171,1.143-2.008,1.032a6.188,6.188,0,0,1-1.339-.558,2.383,2.383,0,0,0-1.952-.028c-.837.39-1.395,1.478-2.315,1.673-1.171.251-1.952-.948-3.04-.976-1.032-.028-2.231.976-1.534,2.008.279.446,1,.028.7-.418Z" transform="translate(-977.856 -248.449)"/></g></g><g transform="translate(211.155 25.414)"><g transform="translate(0)"><path class="c" d="M1012.239,236.534c.335-1.813,3.486-.056,4.6-.251a9.916,9.916,0,0,0,1.924-.865,3.341,3.341,0,0,1,3.068.335.419.419,0,0,0,.418-.725,4.376,4.376,0,0,0-2.677-.669,4,4,0,0,0-1.171.279c-1.116.474-1.562,1-2.956.669-1.339-.335-3.626-1-3.988,1-.14.53.669.753.781.223Z" transform="translate(-1011.442 -234.343)"/></g></g><g transform="translate(0 127.021)"><path class="c" d="M255.139,600.035c.363-1.757,2.789.641,3.263.948a2.245,2.245,0,0,0,1.757.474c.837-.139,1.478-.837,2.343-1.032a4.081,4.081,0,0,1,3.793,1.143c.39.39.976-.223.586-.586a4.853,4.853,0,0,0-3.152-1.478,4.45,4.45,0,0,0-1.813.223c-.92.307-1.646,1.2-2.761.753-1.171-.474-1.618-1.673-2.956-1.813a1.531,1.531,0,0,0-1.841,1.143c-.139.53.669.753.781.223Z" transform="translate(-254.342 -598.656)"/></g><g transform="translate(9.285 125.328)"><path class="c" d="M288.433,593.65c.614-.837,3.43.837,4.239,1.032a11.268,11.268,0,0,0,3.988.139c.53-.084.307-.893-.223-.809a11.562,11.562,0,0,1-6.192-1.144c-.948-.363-1.9-.5-2.538.363-.307.418.418.837.725.418Z" transform="translate(-287.634 -592.586)"/></g><g transform="translate(77.292 181.696)"><path class="c" d="M532.263,797.849a2.342,2.342,0,0,1,2.008-1.143c.725,0,1.171.446,1.813.641a1.84,1.84,0,0,0,1.729-.279c1.088-.725,1.618-1.618,3.1-1.562a9.25,9.25,0,0,1,3.793,1.255c.474.251.893-.474.418-.725-2.2-1.115-4.881-2.175-7-.363a2.017,2.017,0,0,1-1.255.641c-.809.167-.725.056-1.339-.2a3.147,3.147,0,0,0-3.988,1.283.426.426,0,0,0,.725.446Z" transform="translate(-531.475 -794.696)"/></g><g transform="translate(86.653 183.98)"><path class="c" d="M565.753,805.371c1.311-1.144,3.793,1.255,5.411,1.032.976-.139,1.422-.865,2.064-1.534a3.5,3.5,0,0,1,4.574-.53c.446.279.865-.418.418-.725a4.382,4.382,0,0,0-3.626-.558,4.313,4.313,0,0,0-1.506.781c-.669.558-1.088,1.562-2.036,1.729-2.036.363-3.96-2.482-5.885-.781-.39.362.2.948.586.586Z" transform="translate(-565.038 -802.884)"/></g><g transform="translate(48.501)"><path class="c" d="M429.067,150.8a2.836,2.836,0,0,1,1.645-2.036,5.468,5.468,0,0,1,2.231-.139,2.823,2.823,0,0,0,2.092-1.171,9.591,9.591,0,0,1,2.482-2.705,5.309,5.309,0,0,1,4.267-.446c.53.167.725-.641.223-.809a6.194,6.194,0,0,0-6.945,2.482c-.641.892-1.116,1.785-2.343,1.813a6.738,6.738,0,0,0-2.12.112,3.619,3.619,0,0,0-2.343,2.677.42.42,0,0,0,.809.223Z" transform="translate(-428.242 -143.22)"/></g><g transform="translate(52.291 2.933)"><path class="c" d="M442.8,161.59c-1.2-3.179,4.546-3.012,6.275-3.626a22.573,22.573,0,0,0,5.8-3.43c.418-.307,0-1.032-.418-.725a31.306,31.306,0,0,1-3.821,2.538,14.9,14.9,0,0,1-5.076,1.45c-1.924.307-4.435,1.646-3.542,3.988.167.5.976.307.781-.2Z" transform="translate(-441.834 -153.734)"/></g></g><g transform="translate(291.828 157.354)"><g transform="translate(75.043 130.79)"><path class="c" d="M839.584,688.606c2.12-5.55,5.717-9.176,9.427-12.941,4.881-4.937,13.945-14.112,23.177-12.662,7.865,1.227,7,8.785,17.794,14.28,10.18,5.215,14.084.056,24.236,5.662,1.506.837,12.132,6.889,14.559,18.324,1,4.741.753,11.24-1.339,11.853-2.371.7-3.179-12.969-12.662-18.324-7.251-4.1-17.236-2.12-18.045.809-.865,3.1,9.148,5.132,14.81,15.9,2.482,4.685,3.012,8.953,3.765,14.81.7,5.522,1.478,16.846-1.088,17.515-2.12.558-3.263-7-11.044-13.192-4.1-3.263-8.479-4.6-17.236-7.279-7.893-2.4-11.881-3.57-14.029-1.617-3.18,2.9-.725,10.263-.279,11.574,3.124,9.371,11.1,13.276,10.515,14.28-.781,1.255-15.339-2.371-27.221-14C844.772,723.636,833.42,704.7,839.584,688.606Z" transform="translate(-837.837 -662.849)"/><path class="c" d="M1170.249,861.942c-.112.781-.7,5.132,1.869,7.921,2.845,3.068,6.3.725,9.789,3.765,3.207,2.789,2.789,6.973,3.765,6.889,1.115-.084,2.817-5.745.418-9.176-.753-1.088-2.594-2.064-6.248-3.96-3.737-1.952-4.239-1.869-5.215-2.928-2.426-2.622-2.064-6.052-2.928-6.052C1171.029,858.4,1170.444,860.464,1170.249,861.942Z" transform="translate(-1077.441 -803.861)"/><path class="c" d="M1081.134,980.741c-1.562,2.343-1.395,4.853-1.255,7.5.167,2.705.279,4.909,1.869,6.889,1.813,2.259,4.825,3.207,5.215,2.705.307-.39-1.06-1.45-2.287-3.765a17.286,17.286,0,0,1-1.869-7.726c.084-5.02,3.04-8,2.287-8.534C1084.536,977.395,1082.389,978.845,1081.134,980.741Z" transform="translate(-1012.312 -889.918)"/><g transform="translate(79.815 43.783)"><path class="c" d="M1124.207,820.633c4.686,3.1,2.12,10.264,5.188,14.447.307.418,1.032,0,.725-.418-3.179-4.351-.474-11.435-5.494-14.754-.446-.307-.865.418-.418.725Z" transform="translate(-1124.016 -819.834)"/></g><g transform="translate(78.142 23.594)"><path class="e" d="M1118.209,748.241a27.036,27.036,0,0,1,9.9,15.507c.112.53.921.307.809-.223a27.82,27.82,0,0,0-10.263-15.981c-.474-.363-.892.362-.446.7Z" transform="translate(-1118.019 -747.445)"/></g><g transform="translate(62.016 39.155)"><path class="e" d="M1060.337,803.927a30.964,30.964,0,0,1,9.12,12.327c.2.5,1,.279.809-.223a31.933,31.933,0,0,0-9.343-12.69c-.39-.335-1,.251-.586.586Z" transform="translate(-1060.197 -803.242)"/></g><g transform="translate(73.206 56.264)"><path class="e" d="M1100.341,865.092a23.606,23.606,0,0,1,1.45,6.164c.056.53.892.53.837,0a25.065,25.065,0,0,0-1.506-6.387c-.139-.5-.948-.279-.781.223Z" transform="translate(-1100.319 -864.585)"/></g><g transform="translate(30.063 61.097)"><path class="e" d="M945.873,882.217a17.112,17.112,0,0,0,2.4,12.048c.279.446,1,.028.725-.418a16.236,16.236,0,0,1-2.315-11.407c.084-.53-.725-.753-.809-.223Z" transform="translate(-945.631 -881.914)"/></g><g transform="translate(33.768 75.108)"><path class="e" d="M958.965,932.779a19.231,19.231,0,0,0,3.821,4.909c.391.363.976-.223.586-.586a19.526,19.526,0,0,1-3.682-4.741c-.251-.474-.976-.056-.725.418Z" transform="translate(-958.913 -932.152)"/></g><g transform="translate(1.724 32.834)"><path class="e" d="M844.1,780.972a21.288,21.288,0,0,0,.781,7.837.42.42,0,0,0,.809-.223,20.679,20.679,0,0,1-.753-7.614c.056-.53-.781-.53-.837,0Z" transform="translate(-844.019 -780.575)"/></g><g transform="translate(3.409 43.407)"><path class="e" d="M850.073,818.991a18.534,18.534,0,0,0,2.426,6.08c.279.446,1,.028.725-.418a18.58,18.58,0,0,1-2.343-5.885c-.112-.5-.92-.279-.809.223Z" transform="translate(-850.062 -818.485)"/></g></g><g transform="translate(0 0)"><path class="f" d="M574.466,195.2c-.781,2.12-1.729,5.02-2.65,8.534a97.806,97.806,0,0,0-2.956,25.938c.223,12.216,2.622,21.2,4.825,29.2a155.43,155.43,0,0,0,10.1,26.691,238.737,238.737,0,0,0,20.973,34.611c2.315,3.152,5.271,7.14,5.271,7.14,2.148,2.873,3.988,5.271,5.271,7a25.653,25.653,0,0,0,4.044,3.737,26.008,26.008,0,0,0,8.534,4.184c3.626-3.1,7.251-6.219,10.877-9.315,1.646,1.562,3.319,3.1,4.964,4.658,2.287-2.343,4.323-4.211,5.913-5.578a77.477,77.477,0,0,1,13.973-9.789c1.144-.614,2.12-1.088,2.789-1.394-1.032-2.064-2.064-4.128-3.1-6.219a71.391,71.391,0,0,1,5.745-4.49,67.172,67.172,0,0,1,8.228-4.964,27.613,27.613,0,0,0-1.869-9.789,26.774,26.774,0,0,0-3.1-5.745c-6.443-9.287,12.55,16.316-12.272-19.1-9.622-13.722-14.419-20.611-16.622-23.455-6.889-9.008-12.3-15.172-16.148-19.551-7.363-8.395-10.682-11.519-13.359-13.806A66.994,66.994,0,0,0,600.1,203.9a80.561,80.561,0,0,0-11.658-4.658C582.721,197.292,577.9,196.009,574.466,195.2Z" transform="translate(-568.823 -194.837)"/><g transform="translate(0 0.576)"><path d="M573.546,196.254c-6.052,18.658-6.052,38.795-1.7,57.816a129.109,129.109,0,0,0,4.072,14.084c.809,2.343,1.785,4.63,2.65,6.945.307.809.363,1.618.725,2.426.53,1.255,1.088,2.51,1.646,3.765,1.032,2.343,2.12,4.658,3.263,6.973,1.143,2.287,2.538,4.462,3.57,6.777.39.865.725,1.785,1.171,2.622.586,1.06,1.45,1.869,2.064,2.9,1.283,2.148,2.51,4.351,3.849,6.47a324.528,324.528,0,0,0,20.164,28.252c.335.418.92-.167.586-.586-6.275-8.06-12.411-16.232-17.933-24.794-1.367-2.12-2.677-4.239-3.96-6.415-.614-1.032-1.227-2.092-1.813-3.152-.586-1.032-1.367-1.757-1.98-2.761a18.66,18.66,0,0,1-1.227-2.622c-.5-1.2-1.171-2.287-1.785-3.43-1.171-2.148-2.259-4.323-3.291-6.526-1.088-2.315-2.12-4.658-3.152-7-.446-1.032-.614-2.12-1.032-3.179-.446-1.143-.92-2.287-1.367-3.458a137.84,137.84,0,0,1-4.407-13.722,121.486,121.486,0,0,1-4.016-28.866,100.485,100.485,0,0,1,4.769-32.38c.084-.418-.725-.641-.865-.139Z" transform="translate(-568.769 -195.966)"/></g><g transform="translate(4.774)"><path d="M586.281,194.765c4.658.363,9.4,1.98,13.778,3.514a75.071,75.071,0,0,1,12.55,5.494,100.191,100.191,0,0,1,21.224,17.1,258.517,258.517,0,0,1,18.3,21.5c5.745,7.363,11.24,14.977,16.539,22.675,5.857,8.562,11.491,17.292,17.013,26.1.279.446,1,.028.725-.418-10.124-16.092-20.583-31.99-32.213-47.05-11.24-14.586-23.288-29.48-39.074-39.381a72.447,72.447,0,0,0-13.638-6.415c-4.8-1.757-10.04-3.57-15.172-3.988a.433.433,0,0,0-.028.865Z" transform="translate(-585.887 -193.9)"/></g><g transform="translate(46.735 96.587)"><path d="M737.053,583.272a227.835,227.835,0,0,1,43.425-34.583c4.462-2.733,8.981-5.3,13.61-7.7.474-.251.056-.976-.418-.725a228.228,228.228,0,0,0-45.684,31.46q-5.94,5.271-11.518,10.961a.414.414,0,1,0,.586.586Z" transform="translate(-736.338 -540.213)"/></g><g transform="translate(46.527 139.548)"><path d="M735.705,694.99a24.466,24.466,0,0,0,12.467,7.5.42.42,0,0,0,.223-.809,23.8,23.8,0,0,1-12.1-7.307c-.363-.39-.948.223-.586.614Z" transform="translate(-735.591 -694.252)"/></g><g transform="translate(104.293 96.96)"><path d="M942.765,542.179a28.663,28.663,0,0,1,3.709,12.411c.028.53.865.53.837,0a29.688,29.688,0,0,0-3.821-12.829c-.251-.474-.976-.056-.725.418Z" transform="translate(-942.713 -541.552)"/></g><g transform="translate(58.895 109.991)"><path d="M780.653,625.85a321.918,321.918,0,0,1,48.863-36.787c.446-.279.028-1-.418-.725a323.752,323.752,0,0,0-49.03,36.926c-.391.362.2.948.586.586Z" transform="translate(-779.938 -588.275)"/></g><g transform="translate(69.995 119.03)"><path d="M819.867,640.239c1.534,1.506,3.068,3.012,4.6,4.546a.4.4,0,0,0,.586,0A79.814,79.814,0,0,1,840.2,632.207c1.339-.865,2.705-1.673,4.1-2.454.892-.5,2.594-.976,3.124-1.924.558-.948-.279-2.231-.725-3.04a26.1,26.1,0,0,0-2.705-3.96c-.335-.418-.92.167-.586.586a24.492,24.492,0,0,1,2.566,3.793,3.358,3.358,0,0,1,.558,1.088c-.112.5-.223.976-.335,1.478-.139.084-.279.139-.418.223a20.541,20.541,0,0,1-1.9,1.032c-2.426,1.367-4.8,2.845-7.084,4.434a82.048,82.048,0,0,0-12.327,10.71h.586c-1.534-1.506-3.068-3.012-4.6-4.546a.424.424,0,0,0-.586.614Z" transform="translate(-819.738 -620.684)"/></g><g transform="translate(6.058 29.967)"><path d="M591.191,341.218c6.861-8.088,14.893-15.088,23.121-21.754,8.255-6.666,16.9-12.913,26.579-17.348.5-.223.056-.948-.418-.725-9.594,4.379-18.156,10.57-26.356,17.152-8.367,6.749-16.539,13.861-23.511,22.061-.363.446.223,1.032.586.614Z" transform="translate(-590.491 -301.349)"/></g><g transform="translate(55.083 32.491)"><path d="M767.813,312.544c-.92.056-1.311-1.478-.279-1.562a.9.9,0,0,1,.92.5.867.867,0,0,1-.837,1.088.321.321,0,0,0,0,.641,1.415,1.415,0,1,0-.084-2.817,1.306,1.306,0,0,0-1.255,1.422,1.542,1.542,0,0,0,1.534,1.395c.418-.056.418-.7,0-.669Z" transform="translate(-766.271 -310.396)"/></g><g transform="translate(98.509 94.367)"><path d="M922.68,534.221c.028,0,.028,0,.056-.028-.084,0-.167-.028-.251-.028.307.139.139-.446.112-.53a.989.989,0,0,1,.056-.279.944.944,0,0,1,.391-.418.663.663,0,0,1,.865.474.6.6,0,0,1-1.116.446c-.167-.363-.7-.056-.53.307a1.273,1.273,0,0,0,2.036.251,1.317,1.317,0,1,0-2.287-.5c.084.363.558.809.92.446.279-.279,0-.892-.418-.725-.363.139-.2.725.167.586Z" transform="translate(-921.976 -532.256)"/></g><path class="g" d="M589,195.8a155.44,155.44,0,0,1,16.9,12.634c4.044,3.486,14.531,12.829,27.639,30.958,14.224,19.662,21.336,29.48,22.758,40.44.725,5.717,1.729,22.005-12.634,42.03,5.941-4.518,11.909-9.064,17.85-13.582,2.594,4.267,5.16,8.534,7.753,12.8-2.789,2.064-5.578,4.1-8.367,6.164,1.367,1.646,2.733,3.263,4.1,4.909a58.562,58.562,0,0,1,6-5.048,57.532,57.532,0,0,1,9.957-5.857c-1.116-2.147-2.2-4.323-3.319-6.47,4.8-3.152,9.594-6.331,14.391-9.483a36.386,36.386,0,0,0-2.371-9.65,37.135,37.135,0,0,0-4.909-8.7c-6.247-8.451-3.207-6.415-16.288-24.794-9.4-13.22-14.586-20.611-22.9-30.177-5.327-6.136-8.869-10.18-14.531-15.172-6.024-5.327-13.331-11.658-24.487-16.288A73.327,73.327,0,0,0,589,195.8Z" transform="translate(-583.357 -195.27)"/><path class="h" d="M834.93,486.3a31.91,31.91,0,0,1-2.008,7.614c-2.9,7.168-7.363,10.291-16.678,19.718-4.407,4.462-10.961,11.072-10.347,11.8.586.7,7.753-4.825,20.276-13.08,7.335-4.853,13.5-8.618,17.543-11.072Z" transform="translate(-739.732 -404.75)"/><path class="i" d="M910.962,543c-.39.084.558,3.124-.586,6.917-.837,2.789-2.259,4.128-5.745,8.339-1.506,1.813-3.709,4.546-6.331,8.06L914.7,555.1C912.217,545.229,911.3,542.942,910.962,543Z" transform="translate(-806.394 -445.634)"/></g></g><g transform="translate(252.6 176.626)"><g transform="translate(52.949 99.237)"><path class="j" d="M774.751,854.292a5.165,5.165,0,0,0,.865,2.231,18.161,18.161,0,0,0,7.725,6.359,87.2,87.2,0,0,0-2.928,12.522c-.781,5.048-1.7,10.933-.5,11.323.418.139,1.646-.251,13.052-22.842,1.59-3.152,2.9-5.773,3.765-7.558-6.08-2.733-12.132-5.494-18.212-8.228C777.93,848.546,774.444,851.084,774.751,854.292Z" transform="translate(-731.009 -784.153)"/><path class="f" d="M650.528,627.263a69.435,69.435,0,0,0-11.407,10.152,116.516,116.516,0,0,0-19.021,27.75,11.434,11.434,0,0,0,1.59,4.434c1.144,1.841,2.426,2.65,4.435,4.435a65.3,65.3,0,0,1,4.769,4.909c2.761,2.845,6.638,4.992,14.28,9.2a118.242,118.242,0,0,0,16.344,7.781c1.952.7,3.6,1.227,4.769,1.59.558-2.594,1.227-5.355,2.064-8.255.753-2.594,1.562-5.02,2.371-7.279-5.941-4.351-12.048-9.232-18.24-14.754-2.148-1.9-4.211-3.821-6.192-5.717a108.8,108.8,0,0,1,8.395-9.036c1.032-1,3.207-3.068,5.857-5.243a77.836,77.836,0,0,1,15.367-9.678c1.2-8-.223-15.479-4.6-17.905C665.839,616.637,657.528,622.41,650.528,627.263Z" transform="translate(-619.505 -618.817)"/><g transform="translate(0 12.502)"><path d="M643.355,663.742a96.534,96.534,0,0,0-23.846,30.288,11.866,11.866,0,0,0-1.534,3.877c-.112,1.422.753,2.51,1.534,3.6a58.185,58.185,0,0,0,6.247,7.112,76.845,76.845,0,0,0,16.12,11.6A216.371,216.371,0,0,0,664.1,730.455c.5.2.725-.614.223-.809-12.327-5.132-24.906-10.375-35.2-19.1a58.8,58.8,0,0,1-6.5-6.415,47.78,47.78,0,0,1-2.956-3.793,3.519,3.519,0,0,1-.837-2.594,10.223,10.223,0,0,1,1.171-2.873,94.964,94.964,0,0,1,23.93-30.511c.418-.363-.167-.948-.586-.614Z" transform="translate(-617.965 -663.643)"/></g><g transform="translate(24.256 22.161)"><path d="M729.719,698.338a94.894,94.894,0,0,0-24.71,23.177c-.307.446.418.865.725.418a93.933,93.933,0,0,1,24.4-22.9c.446-.251.028-.976-.418-.7Z" transform="translate(-704.934 -698.275)"/></g><g transform="translate(26.181 42.413)"><path d="M711.967,771.591q11.756,10.626,24.208,20.387c.418.335,1-.251.586-.586q-12.467-9.748-24.208-20.388c-.39-.363-.976.223-.586.586Z" transform="translate(-711.838 -770.891)"/></g><g transform="translate(46.408 63.106)"><path d="M788.5,845.368a106.448,106.448,0,0,0-4.128,15.2c-.112.53.7.753.809.223a110.264,110.264,0,0,1,4.128-15.2c.167-.5-.641-.725-.809-.223Z" transform="translate(-784.362 -845.085)"/></g><path class="h" d="M705.308,687.208c-3.849.335-6.749,3.152-15.7,15.59-3.43,4.769-6.3,8.925-8.506,12.216,3.18,2.231,5.69,4.072,7.279,5.271,8.9,6.666,12.634,10.4,20.192,14.475,1.646.893,3.012,1.534,3.821,1.9.641-1.757,1.283-3.514,1.9-5.271-2.12-1.841-4.239-3.654-6.387-5.494q-8.869-7.53-17.6-14.586a70.425,70.425,0,0,1,6.387-7.726,86.827,86.827,0,0,1,13.666-11.323c1.311-.92,2.426-1.645,3.152-2.12C709.91,687.375,707.093,687.041,705.308,687.208Z" transform="translate(-663.492 -668.108)"/><path class="i" d="M719.4,713.4a27.067,27.067,0,0,0-8.869,3.821,29.047,29.047,0,0,0-11.435,16.26q6.442,5.02,13.331,10.1c4.462,3.291,8.9,6.415,13.22,9.427.641-.92,1.283-1.869,1.9-2.789a199.473,199.473,0,0,1-18.268-15.033c-1.952-1.785-3.821-3.6-5.606-5.383.976-1.283,2.036-2.594,3.151-3.932A99.5,99.5,0,0,1,719.4,713.4Z" transform="translate(-676.472 -687.021)"/></g><g transform="translate(90.628 93.32)"><path class="j" d="M961.2,815.174l8.9,8.395c-.781,17.794.7,21.977,2.259,22.284,2.426.474,6.582-7.921,8.395-14.531a40.329,40.329,0,0,0,1.367-12.411q-6.944-6.192-13.889-12.411C965.885,809.4,963.543,812.3,961.2,815.174Z" transform="translate(-903.152 -748.238)"/><path class="f" d="M753.076,614.362a11.427,11.427,0,0,0,3.486,7.447,10.153,10.153,0,0,0,5.383,2.371c.892.363,1.785.753,2.705,1.116,1.394,2.008,3.458,4.853,6.192,8.088,3.626,4.351,8.506,9.538,20.443,19.356,5.885,4.825,13.471,10.766,22.647,17.292a19.59,19.59,0,0,0,4.435-2.984,20.962,20.962,0,0,0,5.745-8.59c-1.618-1.562-4.016-3.9-6.805-6.805a312.16,312.16,0,0,1-26.942-32.185c-4.156-5.55-9.483-12.941-15.367-21.866C761.527,601.281,752.741,608.421,753.076,614.362Z" transform="translate(-753.067 -597.6)"/><g transform="translate(4.049 24.437)"><path d="M767.868,686.05c2.231.781,4.435,1.534,6.666,2.315.5.167.725-.641.223-.809-2.231-.781-4.435-1.534-6.666-2.315-.5-.167-.725.641-.223.809Z" transform="translate(-767.585 -685.219)"/></g><g transform="translate(10.004 26.155)"><path d="M789.009,691.97c10.487,14.419,24.069,26.077,38.153,36.87,4.044,3.1,8.144,6.164,12.244,9.2.446.335.837-.418.418-.725-14.112-10.459-28.308-21.057-40.3-33.942a127.706,127.706,0,0,1-9.761-11.825c-.335-.418-1.06,0-.753.418Z" transform="translate(-788.935 -691.379)"/></g><g transform="translate(26.458 6.698)"><path d="M848.008,622.225a321.819,321.819,0,0,0,33.273,42.7c3.542,3.849,7.2,7.586,10.9,11.24.391.39.976-.223.586-.586a321.636,321.636,0,0,1-35.336-41.054q-4.518-6.233-8.73-12.718c-.279-.446-1-.028-.7.418Z" transform="translate(-847.934 -621.616)"/></g><g transform="translate(60.56 60.433)"><path d="M979.883,814.568c-1.618,4.8-4.741,9.259-9.455,11.379-.5.223-.056.948.418.725,4.909-2.2,8.144-6.889,9.817-11.881.2-.5-.614-.725-.781-.223Z" transform="translate(-970.208 -814.285)"/></g><path class="k" d="M832.632,609.148c-1.59-2.148-2.928-3.9-3.821-5.048a17.754,17.754,0,0,0-2.231,7.837c-.251,7.753,5.439,11.072,21.754,29.145,7.112,7.865,10.877,12.606,20.053,21.977,2.148,2.175,3.96,3.988,5.271,5.271,1-1.757,2.008-3.514,3.04-5.271-8.841-8.869-15.841-16.873-21.085-23.2-5.048-6.108-9.566-11.574-14.224-18.38C840.19,619.774,837.15,615.228,832.632,609.148Z" transform="translate(-806.071 -602.287)"/><path class="k" d="M866,650.3a48.535,48.535,0,0,0,2.789,8.981c4.6,10.821,11.407,15.4,23.651,28.922,2.343,2.594,5.968,6.694,10.208,11.993.976-1.395,1.952-2.761,2.928-4.156-.893-.837-2.315-2.148-4.044-3.821-3.179-3.068-11.8-11.63-28.252-32.52C871.494,657.468,868.984,654.232,866,650.3Z" transform="translate(-834.503 -635.602)"/></g><g transform="translate(3.566 82.929)"><path class="b" d="M470.027,560.779c-.558.223-1.395.7-3.877,4.685-2.677,4.3-4.49,7.224-5.829,11.853a36.464,36.464,0,0,0-1.367,10.961,7.155,7.155,0,0,1-.112,3.654c-.586,1.841-1.645,2.287-3.654,4.8a23.45,23.45,0,0,0-3.207,5.02c-1.171,2.594-.586,2.928-1.7,5.466a19.5,19.5,0,0,1-3.654,5.466c-1.841,1.924-2.733,1.98-3.542,3.654a7.04,7.04,0,0,0-.558,4.211c.056.391.641,3.793,2.622,4.211a1.724,1.724,0,0,0,1.7-.446c.53-.781-.7-1.869-.92-3.765a6.613,6.613,0,0,1,1.032-3.988c1.422-2.65,3.068-2.259,4.574-4.462,1.45-2.175.084-2.845,1.478-6.945.781-2.287,1.562-4.574,3.654-6.275a10.319,10.319,0,0,0,2.733-2.51,7.5,7.5,0,0,0,1.143-3.068,20.844,20.844,0,0,0,4.323,5.02c1.562,1.283,3.347,2.789,4.853,2.231.809-.307,1.534-1.227,1.395-1.869-.084-.363-.418-.474-1.283-1.255,0,0-.335-.307-1.088-1.116a9.043,9.043,0,0,1-1.869-3.347,2.748,2.748,0,0,1,1.757-.948,3.458,3.458,0,0,1,2.4,1.367c1.367,1.339,1.311,2.148,2.175,2.956.669.641,1.9,1.311,4.323,1.143-.112-.307-.307-.809-.558-1.367-.865-1.869-1.311-2.064-1.367-2.845-.028-.614.223-.781,1.367-2.733a10.787,10.787,0,0,0,1.478-2.956c.139-1.645-1.283-2.2-1.59-4.1a6.05,6.05,0,0,1,.92-3.877c2.9-5.885,4.741-9.622,4.211-12.439C481.183,562.759,474.155,559.049,470.027,560.779Z" transform="translate(-441.998 -560.345)"/><g transform="translate(16.569 1.309)"><path class="b" d="M510.489,565.167A36.672,36.672,0,0,0,502.122,580c-1.673,5.327-2.928,11.407-.279,16.622.251.474.976.056.725-.418-2.622-5.132-1.2-11.212.5-16.427a35.1,35.1,0,0,1,8-14.029c.363-.391-.223-.976-.586-.586Z" transform="translate(-500.312 -565.038)"/></g><g transform="translate(21.785 24.17)"><path class="b" d="M519.791,648.373c.335-.167.669-.307,1-.474.251.139.5.307.753.446a3.89,3.89,0,0,1,.781,1,3.989,3.989,0,0,1,.53,2.259c-.112,1.506-1.2,2.677-1.478,4.128-.167.893.418,1.534.92,2.2a21.062,21.062,0,0,0,2.956,3.151c.39.363,1-.223.586-.586a22.755,22.755,0,0,1-2.008-2.008c-1-1.143-1.9-2.12-1.2-3.709.614-1.395,1.255-2.705.976-4.3a4.717,4.717,0,0,0-2.008-3.152,1.684,1.684,0,0,0-2.538.586c-.251.5.474.92.725.446Z" transform="translate(-519.013 -647.008)"/></g><g transform="translate(18.093 32.39)"><path class="b" d="M505.838,677.1a17.18,17.18,0,0,0,6.554,6.164c.809.418,2.343,1.395,3.319.976.92-.39.753-1.506.5-2.259-.167-.5-.976-.279-.809.223.641,2.036-2.064.614-2.594.335a15.364,15.364,0,0,1-2.454-1.59,16.525,16.525,0,0,1-3.821-4.3c-.251-.418-.976,0-.7.446Z" transform="translate(-505.775 -676.481)"/></g><g transform="translate(25.372 7.121)"><path class="b" d="M543.875,586.164a83.376,83.376,0,0,0-3.152,16.957.388.388,0,0,0,.307.391c1.757.474,1.506,2.65.865,3.877a33.208,33.208,0,0,0-2.147,3.4c-.893,2.259,1.757,2.984,1.7,4.964l.418-.418a7.136,7.136,0,0,1-5.885-3.654c-.892-1.562-1.924-1.9-3.709-1.785-.53.028-.53.865,0,.837a4.094,4.094,0,0,1,2.092.223c.53.307.7.837.976,1.311a7.788,7.788,0,0,0,1.813,2.12,8.051,8.051,0,0,0,4.686,1.785.429.429,0,0,0,.418-.418c.028-1.171-.753-1.869-1.395-2.761-1.339-1.869.865-3.6,1.729-5.187.948-1.729.92-4.518-1.367-5.1a4.785,4.785,0,0,0,.307.391,81.224,81.224,0,0,1,3.124-16.734c.167-.474-.641-.7-.781-.2Z" transform="translate(-531.875 -585.879)"/></g><g transform="translate(0 27.787)"><path class="b" d="M457.58,660.372a8.044,8.044,0,0,1-.837,4.825,13.694,13.694,0,0,1-3.179,3.542,12.839,12.839,0,0,0-3.765,6.945,15.143,15.143,0,0,1-3.737,7.558c-1.618,1.646-3.514,3.179-4.518,5.327a6.688,6.688,0,0,0,.418,6.47c.725,1.143,3.207,3.43,4.156,1.255a4.149,4.149,0,0,0-.363-2.873,6.811,6.811,0,0,1-.641-2.343,4.424,4.424,0,0,1,1.45-2.984c1.9-1.98,4.323-3.1,5.16-5.913.474-1.59.139-3.179.251-4.8a7.63,7.63,0,0,1,2.538-5.076c2.2-2.092,5.132-3.821,5.132-7.224a.419.419,0,0,0-.837,0c-.028,3.263-3.207,4.881-5.215,6.945a8.359,8.359,0,0,0-2.482,5.829c-.028,1.478.223,2.873-.279,4.3a8.645,8.645,0,0,1-3.012,3.765c-1.646,1.311-3.542,2.845-3.542,5.16a10.839,10.839,0,0,0,.892,3.179c.084.279.39,1.032.251,1.255-.279.028-.586.084-.865.112q-.753.46-1.171-.167a4.857,4.857,0,0,1-1.367-2.231c-.892-2.622.335-4.964,2.092-6.861,1.478-1.618,3.207-2.984,4.435-4.825,1.311-1.952,1.7-4.267,2.259-6.5a10.613,10.613,0,0,1,2.092-4.462c.976-1.143,2.2-2.008,3.207-3.124a8.854,8.854,0,0,0,2.287-7.084c-.028-.53-.865-.53-.809,0Z" transform="translate(-440.903 -659.975)"/></g></g><g transform="translate(0 58.696)"><path class="f" d="M430.768,492.87a3.3,3.3,0,0,0-1.9,2.148,3.176,3.176,0,0,0,.837,2.622,2.826,2.826,0,0,0-.725,1.673,3.029,3.029,0,0,0,1.311,2.4,2.275,2.275,0,0,0-.586,2.036,2.77,2.77,0,0,1,1.311,2.984,2.285,2.285,0,0,0,2.036.948,2.693,2.693,0,0,0,2.259-1.673,6.318,6.318,0,0,0,3.821.837,6.609,6.609,0,0,0,2.733-.948,33.788,33.788,0,0,0,4.881,6.554c2.036,2.12,5.829,6.108,11.463,7.753,7.028,2.064,13.248-.614,16.818-2.148,9.594-4.128,14.363-11.714,16.12-14.559a40.4,40.4,0,0,0,4.881-12.773c1.45-5.968.948-8.311.474-9.678-.279-.837-1.924-5.634-5.717-6.192-3.1-.474-5.662,2.175-5.968,2.51-1.06,1.116-1.618,2.594-2.733,5.494-.558,1.478-.92,2.594-1.088,3.1-1.813,5.885-2.733,8.813-2.984,9.427a19.678,19.678,0,0,1-6.08,8.479,18.992,18.992,0,0,1-9.176,3.709c-2.566.363-5.717.809-9.064-.837a13.278,13.278,0,0,1-5.857-6.08,22.736,22.736,0,0,1-1.785-8c-.251-2.789-.056-4.964-1.673-6.694-.307-.307-1.032-1.088-1.785-.948-1.088.223-1.7,2.315-2.259,4.3-.474,1.673-.335,1.869-.725,2.259-.809.809-1.841.391-5.383.586A7.713,7.713,0,0,0,430.768,492.87Z" transform="translate(-428.625 -474.423)"/><g transform="translate(0 17.089)"><path d="M436.032,534.888c-3.012-.558-8.311.223-7.893,4.351.363,3.709,4.769,4.351,7.419,2.733.446-.279.028-1-.418-.725-2.2,1.339-6.192.976-6.192-2.371,0-3.235,4.546-3.6,6.861-3.179.53.112.753-.7.223-.809Z" transform="translate(-428.116 -534.728)"/></g><g transform="translate(0.027 22.825)"><path d="M428.933,555.437c-3.012,3.681,4.239,8.311,6.387,3.681.223-.474-.5-.92-.725-.418-1.673,3.57-7.251,0-5.048-2.677.335-.391-.251-1-.614-.586Z" transform="translate(-428.211 -555.297)"/></g><g transform="translate(0.631 26.494)"><path d="M430.663,568.661a3.107,3.107,0,0,0,1.283,4.044,3.069,3.069,0,0,0,4.016-1.339c.251-.474-.474-.892-.725-.418a2.282,2.282,0,0,1-2.873,1.032,2.228,2.228,0,0,1-.976-2.9c.223-.474-.5-.893-.725-.418Z" transform="translate(-430.378 -568.452)"/></g><g transform="translate(1.576 30.042)"><path d="M433.775,581.573a2.784,2.784,0,0,0,5.411,1.227c.2-.5-.614-.725-.809-.223a1.966,1.966,0,0,1-2.371,1.255,2.061,2.061,0,0,1-1.394-2.259c.028-.53-.809-.53-.837,0Z" transform="translate(-433.765 -581.175)"/></g><g transform="translate(3.834 20.452)"><path d="M442.263,547.656a3.02,3.02,0,0,1,2.092.363,1.448,1.448,0,0,1,.586,1.813c-.251.474.474.892.725.418a2.209,2.209,0,0,0-.418-2.566,3.558,3.558,0,0,0-3.012-.865c-.5.084-.5.92.028.837Z" transform="translate(-441.862 -546.789)"/></g><g transform="translate(6.314 30.628)"><path d="M451.271,584.872c1.45-.53,2.845.669,4.351.5a8.251,8.251,0,0,0,3.1-1.311c.446-.279.028-1-.418-.725-1.422.865-2.65,1.478-4.351.976a4.184,4.184,0,0,0-2.9-.251c-.5.2-.307,1,.223.809Z" transform="translate(-450.757 -583.275)"/></g><g transform="translate(7.413 10.203)"><path d="M454.977,517.811c1.45.5,3.4.586,4.211-1,.446-.893.167-1.98.363-2.928a5.186,5.186,0,0,1,1.952-3.152c.418-.335-.167-.92-.586-.586a6.118,6.118,0,0,0-2.148,3.514,23.64,23.64,0,0,1-.167,2.454c-.5,1.506-2.175,1.311-3.347.893a.428.428,0,0,0-.279.809Z" transform="translate(-454.697 -510.042)"/></g><g transform="translate(13.305 10.13)"><path d="M476.121,510.593c2.371.307,2.677,4.3,3.068,6.108.474,2.371.725,4.769,1.171,7.14a11.541,11.541,0,0,0,6.443,8.506,16.783,16.783,0,0,0,11.714.614c3.96-1.116,8.06-3.124,10.626-6.443.335-.418-.251-1-.586-.586-2.677,3.458-7.028,5.494-11.212,6.47-4.211.976-8.813.614-12.327-2.12-3.793-2.928-3.877-7.335-4.63-11.714a33.823,33.823,0,0,0-1.422-6.247,3.478,3.478,0,0,0-2.594-2.538c-.558-.084-.781.725-.251.809Z" transform="translate(-475.82 -509.778)"/></g><g transform="translate(12.892 11.468)"><path d="M474.442,535.081c3.375,4.128,6.638,8.841,11.1,11.881,4.379,2.956,9.789,3.263,14.865,2.426,10.319-1.729,19.077-8.729,24.1-17.766a46.073,46.073,0,0,0,5.327-16.65c.056-.53-.781-.53-.837,0-1.283,9.957-5.634,19.718-13.387,26.3a32.359,32.359,0,0,1-13.248,6.833c-5.048,1.227-10.877,1.395-15.479-1.311-4.909-2.873-8.339-8-11.853-12.327-.335-.39-.92.2-.586.614Z" transform="translate(-474.342 -514.575)"/></g><g transform="translate(45.298)"><path d="M607.789,473.776c-2.315-.92-4.769.279-6.387,1.98a15.873,15.873,0,0,0-3.542,7.112,80.232,80.232,0,0,1-2.677,8.813,51.754,51.754,0,0,1-4.574,8.813c-.307.446.418.865.725.418a50.432,50.432,0,0,0,6.443-14.363c.725-2.677,1.2-5.466,2.538-7.893,1.339-2.454,4.184-5.3,7.251-4.072.5.2.725-.614.223-.809Z" transform="translate(-590.534 -473.457)"/></g><g transform="translate(5.092 29.156)"><path d="M446.772,578.835c.781.056.614,1.367.474,1.841-.167.5.641.725.809.223.363-1.06.112-2.789-1.283-2.9-.53-.028-.53.809,0,.837Z" transform="translate(-446.375 -577.997)"/></g><g transform="translate(5.16 26.902)"><path d="M447.42,570.44a1.679,1.679,0,0,1-.614,1.757c-.446.307-.028,1.032.418.725a2.508,2.508,0,0,0,1-2.705c-.112-.53-.92-.307-.809.223Z" transform="translate(-446.616 -569.914)"/></g><g transform="translate(6.229 23.76)"><path d="M450.661,559.416c.753.363.251,1.562-.112,2.036-.335.418.39.837.725.418.641-.837.976-2.622-.2-3.179-.474-.223-.892.5-.418.725Z" transform="translate(-450.452 -558.649)"/></g><path class="h" d="M430.234,500.723c.446-.251,1.171,1.311,3.04,2.092.7.279,1.562.474,5.522,0,1.283-.167,2.956-.391,4.964-.753a20.827,20.827,0,0,0,2.845,6.47,21.128,21.128,0,0,0,8.953,7.419,23.964,23.964,0,0,0,23.985-3.626c2.873-2.482,4.713-5.494,7.419-13.331A145,145,0,0,0,492.68,477.1a15.874,15.874,0,0,1,3.821,6.275,16.487,16.487,0,0,1,.558,7.056c-.753,7.335-4.435,13.443-6.666,16.567-2.315,3.263-6.443,8.9-14.084,12.383a32.558,32.558,0,0,1-14.28,2.677,16.288,16.288,0,0,1-5.188-.865c-2.092-.753-4.183-2.705-8.339-6.554a34.966,34.966,0,0,1-5.16-5.69c-.335-.474-.614-.893-.809-1.171a3.7,3.7,0,0,1-2.426.725c-1.311-.112-1.757-1.06-2.845-.892-.948.139-.948.92-2.092,1.339a3.355,3.355,0,0,1-2.984-.363c-.614-.474-.7-1-1.395-4.016C430.123,501.615,429.928,500.89,430.234,500.723Z" transform="translate(-429.542 -476.084)"/></g><g transform="translate(29.508 75.256)"><path class="b" d="M538.118,534c-.53.112-.725,1.171-1.06,2.817a17.409,17.409,0,0,0-.307,2.482,4.905,4.905,0,0,0-1.255,2.984,6.82,6.82,0,0,0,.948,3.124,17.779,17.779,0,0,0,1.255,2.315,2.442,2.442,0,0,0-2.092,1.9,2.2,2.2,0,0,0,.948,1.673c1.255,1.088,2.176.279,3.765,1.143,1.283.7,1.171,1.478,3.04,2.51,1.171.642,1.534.5,1.673.418.474-.307.307-1.311.223-1.98a8.586,8.586,0,0,0-1.367-3.458c1.088-.39,2.175-.781,3.235-1.143-.781.084-.948.111-.948.111a5.025,5.025,0,0,1,3.57-.111c1.367.586,1.478,1.813,2.622,1.9a1.858,1.858,0,0,0,1.673-.837c.641-1.088-.558-2.677-.837-3.04a5.809,5.809,0,0,0-3.57-2.092,7.251,7.251,0,0,0,.586-2.566,6.967,6.967,0,0,0-1.088-3.877c-.5-1.646-.976-3.291-1.478-4.964-.781,1.813-1.646,2.371-2.315,2.51-.753.167-1.171-.2-2.4,0-1.171.2-1.227.558-1.9.53C539.484,536.173,538.954,533.83,538.118,534Z" transform="translate(-535.055 -533.17)"/><g transform="translate(3.709 8.762)"><path class="f" d="M547.267,565.128a2,2,0,0,0,1.98.725,1.607,1.607,0,0,0,1.2-1.395c.028-.279-.391-.279-.418,0a1.172,1.172,0,0,1-1.143,1.032,1.652,1.652,0,0,1-1.311-.669c-.2-.2-.474.112-.307.307Z" transform="translate(-547.216 -564.25)"/></g><g transform="translate(9.685 8.009)"><path class="f" d="M568.689,562.261c.7,1,2.956,1.088,2.873-.5-.028-.279-.446-.279-.418,0,.084,1.143-1.618.976-2.092.279-.167-.223-.53,0-.363.223Z" transform="translate(-568.646 -561.55)"/></g><g transform="translate(7.02 11.285)"><path class="f" d="M560.709,573.825c0,.028.028.056.028.084.084.028.2.056.279.084a.28.28,0,0,0-.279-.167c.112-.028.2-.084.307-.112-.028-.028-.056-.084-.084-.112-.139.056-.251.112-.391.167a1.548,1.548,0,0,1,0,1.171c-.139.418-.725.976-1.088.418a.213.213,0,0,0-.363.223.954.954,0,0,0,1.534.056,1.989,1.989,0,0,0,.279-2.064.216.216,0,0,0-.391.167.616.616,0,0,0,.279.363.207.207,0,0,0,.307-.112c.056-.251-.028-.837-.418-.669-.363.14-.223.7-.056.92a.226.226,0,0,0,.279.084.46.46,0,0,0-.028-.809c-.223-.167-.418.2-.2.307Z" transform="translate(-559.087 -573.294)"/></g><g transform="translate(8.663 11.647)"><path class="f" d="M564.987,574.846c.112.641.335,1.422,1.088,1.534s.976-.614.976-1.2a.209.209,0,0,0-.418,0c0,.418-.139,1-.7.725-.418-.2-.474-.753-.53-1.171-.056-.251-.474-.139-.418.112Z" transform="translate(-564.982 -574.593)"/></g><g transform="translate(0.156 2.472)"><path class="b" d="M535.293,549a7.951,7.951,0,0,1,5.466-6.219,6.279,6.279,0,0,1,7.447,3.04c.223.474.948.056.725-.418a7.093,7.093,0,0,0-8-3.514,8.768,8.768,0,0,0-6.443,6.889c-.084.53.725.753.809.223Z" transform="translate(-534.478 -541.697)"/></g><g transform="translate(1.58 0.19)"><path class="b" d="M540.454,538.892a9.13,9.13,0,0,1,.809-4.044,1.489,1.489,0,0,0,.139-.307c.2-.335.223-.39.056-.167-.167.139-.139.251.112.418.056.084.14.2.2.279a14.886,14.886,0,0,1,1.088,2.092c.2.5,1,.279.809-.223-.279-.669-1.562-4.072-2.65-3.319a4.644,4.644,0,0,0-1.032,2.175,9.806,9.806,0,0,0-.391,3.124c.056.5.892.5.865-.028Z" transform="translate(-539.585 -533.512)"/></g><g transform="translate(10.168)"><path class="b" d="M571.163,536.142c.279-.474.558-.948.865-1.422a2.99,2.99,0,0,0,.418-.614c.2-.112.223-.223.112-.363-.112-.2-.084-.139.056.167a13.752,13.752,0,0,1,.948,3.681c.056.53.892.53.837,0a14.909,14.909,0,0,0-.5-2.705c-.167-.5-.418-1.646-.893-1.952-.362-.223-.669-.056-.92.251a17.19,17.19,0,0,0-1.646,2.538c-.279.446.446.865.725.418Z" transform="translate(-570.375 -532.833)"/></g><g transform="translate(0.211 5.545)"><path class="b" d="M534.683,556.5a7.472,7.472,0,0,0,8.757,7.726,7.679,7.679,0,0,0,5.215-3.849c1.088-2.092,1.7-5.411.279-7.474-.307-.446-1.032-.028-.725.418,1.255,1.869.641,4.937-.363,6.805a6.888,6.888,0,0,1-4.63,3.291c-4.211.837-7.865-2.789-7.7-6.917a.418.418,0,0,0-.837,0Z" transform="translate(-534.677 -552.716)"/></g><g transform="translate(0 13.881)"><path class="b" d="M534.722,585.419c.669-2.482,4.016-2.343,5.773-1.255a6.911,6.911,0,0,1,3.012,5.383c.056.586.279,1.171-.7.809a4.483,4.483,0,0,1-1.116-.948,14.735,14.735,0,0,0-1.506-1.45,4.508,4.508,0,0,0-2.008-.893c-1.171-.223-3.291-.084-3.4-1.757-.028-.53-.865-.53-.837,0a2.473,2.473,0,0,0,1.785,2.175,23.74,23.74,0,0,0,2.454.418,4.762,4.762,0,0,1,2.371,1.506c.7.7,1.9,2.259,3.1,2.036,1-.2.781-1.339.7-2.092a7.5,7.5,0,0,0-4.351-6.359c-2.2-.865-5.383-.363-6.052,2.231-.167.5.641.725.781.2Z" transform="translate(-533.919 -582.602)"/></g><g transform="translate(10.466 11.362)"><path class="b" d="M572.911,575.28c1.143-1.534,3.737-.92,4.937.112a4.342,4.342,0,0,1,1.394,2.287,3.287,3.287,0,0,1,.112,1.171c-.279.809-.865.558-1.367.167a9.121,9.121,0,0,0-2.092-1.618,2.866,2.866,0,0,0-1.283-.167,9.045,9.045,0,0,1-1.227.056c-.781-.112-1.869-.837-.558-1.841.418-.335-.167-.92-.586-.586a1.813,1.813,0,0,0-.7,2.064,2.158,2.158,0,0,0,2.427,1.227,3.1,3.1,0,0,1,2.538.669,14.084,14.084,0,0,0,1.171,1.032c.586.418,1.45.809,2.092.223,1.478-1.367-.223-4.407-1.394-5.355-1.673-1.367-4.741-1.757-6.136.167-.363.39.362.809.669.39Z" transform="translate(-571.445 -573.57)"/></g><g transform="translate(2.285 14.008)"><path class="f" d="M542.247,583.433c1.813-.586,4.574.558,5.69,2.036.084.112.251,0,.167-.112-1.171-1.59-3.96-2.761-5.913-2.12-.139.028-.084.223.056.2Z" transform="translate(-542.11 -583.059)"/></g><g transform="translate(11.962 11.801)"><path class="f" d="M576.973,576.527a3.264,3.264,0,0,1,3.207-1.116c.139.028.2-.167.056-.2a3.491,3.491,0,0,0-3.4,1.171c-.084.112.056.251.139.14Z" transform="translate(-576.808 -575.145)"/></g><g transform="translate(2.884 1.168)"><path class="f" d="M544.829,537.155a8.817,8.817,0,0,1,.558,2.2l.167-.084a1.6,1.6,0,0,0-.446-.307c-.084-.028-.167,0-.167.084,0,.251-.028.474-.028.725l.167-.084c-.39-.446-.7.558-.809.753-.056.112.111.223.167.112.028-.056.39-.837.474-.725.056.084.167,0,.167-.084,0-.251.028-.474.028-.725l-.167.084a.782.782,0,0,1,.391.279c.056.056.2.028.167-.084a8.984,8.984,0,0,0-.586-2.259c.056-.056-.139,0-.084.111Z" transform="translate(-544.26 -537.022)"/></g><g transform="translate(11.541 0.877)"><path class="f" d="M575.83,536.039a4.675,4.675,0,0,0-.53,1.841c0,.056.084.112.139.112.391-.112.446.2.474.53,0,.084.112.139.167.084.139.223.251.418.391.641-.028.14.2.2.2.056.056-.39-.2-1.394-.725-.837l.167.084a6.632,6.632,0,0,0-.139-.725c0-.056-.056-.084-.112-.084a1.46,1.46,0,0,0-.5.084.49.49,0,0,1,.139.112,3.865,3.865,0,0,1,.5-1.729c.084-.2-.112-.307-.167-.167Z" transform="translate(-575.3 -535.977)"/></g></g><g transform="translate(59.066 47.329)"><path class="c" d="M639.9,445.256a78.144,78.144,0,0,0,2.705,11.937c3.291,10.487,7.168,14.977,12.3,27.137,1.283,3.04,3.1,7.614,4.881,13.387a35.318,35.318,0,0,0,17.013,1.255,36.745,36.745,0,0,0,21.7-12.829c-4.239-7.809-8.506-16.26-12.662-25.324-4.128-8.981-7.725-17.626-10.849-25.854A30.382,30.382,0,0,0,639.9,445.256Z" transform="translate(-639.9 -432.929)"/><path class="l" d="M727.7,432.7c1.06,2.231,2.4,5.271,3.821,8.953a128.624,128.624,0,0,1,6.666,24.766,107,107,0,0,1,.558,32.185,25.5,25.5,0,0,0,8.562-1.7c5.188-2.064,8.953-5.662,12.578-9.148.837-.781,1.478-1.478,1.9-1.9-1.2-2.064-3.012-5.3-5.132-9.343-6.136-11.658-10.152-21.336-13.527-29.535-1.2-2.873-2.845-7-4.769-11.993a28.1,28.1,0,0,0-5.718-1.7A32.153,32.153,0,0,0,727.7,432.7Z" transform="translate(-703.213 -432.7)"/><path class="m" d="M793.9,512c.474,4.992.865,9.176,1.143,12.188,1.06,11.8,1.255,15.061,1.339,17.152.223,4.937.223,8.981.2,11.63a26.454,26.454,0,0,0,6.275-3.235,27.589,27.589,0,0,0,6.108-5.913Q801.43,527.883,793.9,512Z" transform="translate(-750.95 -489.883)"/></g><g transform="translate(78.902 41.465)"><path class="f" d="M715.047,413.288c-1.339.39-2.064,2.315-2.51,4.3a24.468,24.468,0,0,0-.251,8.7,55.1,55.1,0,0,0,2.733,10.626,42.352,42.352,0,0,0,6.554,12.16c2.092,2.622,3.877,4.881,7.168,6.554,1.925,1,5.913,3.04,10.013,1.422.2-.084,4.211-1.729,5.243-5.243a13.927,13.927,0,0,0,.363-3.1,29.787,29.787,0,0,0-.112-4.546,32.366,32.366,0,0,0-1.311-6.192c-1.98-6.554-2.956-9.817-5.02-12.662-1.7-2.343-3.626-5.02-6.805-5.383-.279-.028-3.486-.335-5.383,1.9a6.732,6.732,0,0,0-1.2,4.769c.084,2.454,1.032,4.211,2.51,6.917,1.478,2.677,2.064,3.012,3.821,6.192,2.4,4.351,2.148,4.769,2.036,4.881-.474.418-2.371-.892-2.789-1.2a9.659,9.659,0,0,1-1.646-1.422,21.006,21.006,0,0,1-3.458-6.08,95.969,95.969,0,0,1-4.183-9.538,12.144,12.144,0,0,1,1.785-3.932c.948-1.339,2.008-2.259,2.259-3.932a4.8,4.8,0,0,0,0-1.562,1.415,1.415,0,0,0-1.422-2.4,1.543,1.543,0,0,0-2.51-1.088,3.631,3.631,0,0,0-2.036-.837,10.98,10.98,0,0,0-2.259.363A16.117,16.117,0,0,1,715.047,413.288Z" transform="translate(-711.734 -412.333)"/><g transform="translate(8.839 3.659)"><path d="M744.188,433.859a38.061,38.061,0,0,1,2.733-5.3c.53-.892,1.143-2.008.418-2.984-1.645-2.12-3.877.586-4.574,1.98-.251.474.474.892.725.418.418-.837.893-1.869,1.869-2.148a1.157,1.157,0,0,1,.865-.056c.084.642.167,1.283.279,1.924a6.865,6.865,0,0,1-.781,1.283,35.684,35.684,0,0,0-2.287,4.63c-.251.53.558.725.753.251Z" transform="translate(-742.713 -424.793)"/></g><g transform="translate(0 0.291)"><path d="M712.215,428.75a36.076,36.076,0,0,1-.14-9.008c.307-2.733.893-6.889,4.686-6.108.53.112.753-.7.223-.809-2.984-.614-4.853,1.506-5.355,4.211a36.466,36.466,0,0,0-.223,11.937c.084.53.892.307.809-.223Z" transform="translate(-711.021 -412.718)"/></g><g transform="translate(3.94)"><path d="M725.888,415.14a5.852,5.852,0,0,1,1.227-2.036c1-.976,2.287-.446,3.375.084.474.251.892-.474.418-.725-1.143-.586-2.426-1.143-3.654-.5a5.188,5.188,0,0,0-2.064,2.733c-.223.53.5.948.7.446Z" transform="translate(-725.149 -411.675)"/></g><g transform="translate(6.476 0.829)"><path d="M734.927,417.535c1.032-1.339,2.4-2.733,4.183-1.673a.419.419,0,0,0,.418-.725c-2.12-1.255-3.9.112-5.187,1.785-.335.446.251,1.032.586.614Z" transform="translate(-734.242 -414.647)"/></g><g transform="translate(8.331 1.86)"><path d="M741.591,420.814a5.27,5.27,0,0,1,1.813-1.422c.865-.363,2.454-.139,2.12,1.171a.42.42,0,0,0,.809.223,1.953,1.953,0,0,0-1.618-2.4c-1.534-.279-2.733.837-3.709,1.841-.363.39.223.976.586.586Z" transform="translate(-740.891 -418.344)"/></g><g transform="translate(9 12.085)"><path d="M743.656,455.229c-.976,2.092.223,4.211,1.06,6.136a67.315,67.315,0,0,0,3.9,7.921c1.952,3.291,6.192,9.2,10.626,5.829.418-.335,0-1.06-.418-.725-4.267,3.263-8.228-3.319-9.957-6.359-1-1.785-1.9-3.626-2.733-5.494s-2.705-4.8-1.729-6.889c.2-.474-.53-.92-.753-.418Z" transform="translate(-743.291 -455.008)"/></g><g transform="translate(12.478 9.884)"><path d="M756.247,447.417c-2.454,8.339,5.076,14.81,7.837,21.949.2.5,1,.279.809-.223-2.677-6.917-10.208-13.443-7.837-21.5a.42.42,0,0,0-.809-.223Z" transform="translate(-755.763 -447.114)"/></g><g transform="translate(0.351 15.573)"><path d="M712.284,468.04a49.5,49.5,0,0,0,9.622,21.475c2.371,3.012,5.076,5.941,8.813,7.168,3.179,1.032,7.558,1.562,10.515-.363,3.235-2.064,3.654-6.275,3.793-9.761.028-.53-.809-.53-.837,0-.167,4.49-1.171,9.455-6.5,10.1a15,15,0,0,1-12.8-4.909,47.734,47.734,0,0,1-11.825-23.93c-.056-.53-.865-.307-.781.223Z" transform="translate(-712.278 -467.514)"/></g><g transform="translate(12.673 7.203)"><path d="M757.309,441.6c.892-3.57,5.188-3.821,7.865-2.259,2.733,1.59,4.6,4.462,5.969,7.224a70.105,70.105,0,0,1,3.458,9.092c1.143,3.514,2.008,7.2,1.422,10.9-.084.53.725.753.809.223.669-4.239-.39-8.339-1.757-12.355-1.255-3.654-2.482-7.419-4.574-10.71-1.757-2.789-4.379-5.69-7.837-6.164a5.475,5.475,0,0,0-6.192,3.821.434.434,0,0,0,.837.223Z" transform="translate(-756.462 -437.503)"/></g><path class="m" d="M715.791,412.847a6.37,6.37,0,0,1,4.937.335,25.219,25.219,0,0,0-5.16,14.112c-.418,10.04,5.578,16.706,7.7,19.077,2.733,3.04,6.3,7,10.9,6.443a8.722,8.722,0,0,0,6.3-4.239c1.255-2.2,1.171-4.6-.335-10.793-2.315-9.371-4.853-14.865-4.49-15.033s3.375,4.546,5.634,10.459a51.314,51.314,0,0,1,2.761,12.411c.418,4.211.056,5.941-.809,7.475a9.169,9.169,0,0,1-4.351,3.793,11.262,11.262,0,0,1-8.144-.112c-5.494-1.841-8.423-6.3-11.379-10.793-4.546-6.945-5.8-12.885-7-18.6-.837-3.96-1.395-8.562.7-11.937A5.487,5.487,0,0,1,715.791,412.847Z" transform="translate(-711.446 -412.254)"/></g><g transform="translate(38.281 0)"><path class="f" d="M582.176,333.928c-.084,1.311.39,2.789,1.394,5.745,1.116,3.319,2.315,6.861,5.327,10.347,1.924,2.231,4.267,4.964,8.255,5.745a12.428,12.428,0,0,0,7.14-.837,17.274,17.274,0,0,0,1.255,2.65,19.569,19.569,0,0,0,4.49,5.327,8.568,8.568,0,0,0,4.769-2.092,9.715,9.715,0,0,0,2.371-3.626,12.282,12.282,0,0,0,.837-2.789,12.927,12.927,0,0,1-2.65-2.092,13.986,13.986,0,0,1-3.765-7.837c.363-3.207.753-6.443,1.116-9.65a3.031,3.031,0,0,0,2.092-.418c.865-.586,1.032-1.562,1.255-2.65a6.848,6.848,0,0,0-.139-4.072c-.279-.7-1.171-2.928-3.068-3.068a3.71,3.71,0,0,0-3.347,2.092,16.821,16.821,0,0,0-9.929-4.769C591.184,321.155,582.65,327.709,582.176,333.928Z" transform="translate(-577.483 -305.453)"/><path d="M626.482,389.672c-.223.586.418,1.422.892,1.841,1.311,1.143,3.626,1.088,5.3.307a6.871,6.871,0,0,0,3.43-4.49c.39-1.171.892-2.705.084-4.072a4.054,4.054,0,0,0-2.4-1.757c-.474.976-.837,1.7-1.116,2.175a10.727,10.727,0,0,0-.641,1.227,6.116,6.116,0,0,1-.7,1.339,9.021,9.021,0,0,1-3.765,2.817C627.067,389.17,626.621,389.281,626.482,389.672Z" transform="translate(-609.406 -348.45)"/><g transform="translate(5.122 28.803)"><path d="M583.757,369.294c2.2,6.889,4.964,14.921,12.076,18.156a11.646,11.646,0,0,0,9.315.279c3.319-1.422,5.271-4.713,6.61-7.893a29.188,29.188,0,0,0,2.231-13.164c-.028-.53-.865-.53-.837,0a28.462,28.462,0,0,1-2.538,13.666c-1.924,4.156-4.964,7.475-9.845,7.419-9.817-.112-13.805-10.933-16.26-18.658a.39.39,0,1,0-.753.2Z" transform="translate(-583.74 -366.275)"/></g><g transform="translate(31.495 18.834)"><path d="M679.137,333.729a2.485,2.485,0,0,1,3.291-2.2,4.31,4.31,0,0,1,2.622,3.263,8.5,8.5,0,0,1-.251,4.183c-.335,1.06-.753,1.618-2.036,1.618-.446,0-.892-.167-1.367-.167a.419.419,0,0,0,0,.837c.948,0,1.869.446,2.789-.028a3.041,3.041,0,0,0,1.339-1.7,8.43,8.43,0,0,0-.111-6.331,4.4,4.4,0,0,0-4.156-2.65A3.251,3.251,0,0,0,678.3,333.7a.419.419,0,0,0,.837.028Z" transform="translate(-678.3 -330.531)"/></g><g transform="translate(33.975 36.919)"><path d="M687.194,395.772a14.8,14.8,0,0,0,5.578,11.881c.418.335,1-.251.586-.586a13.968,13.968,0,0,1-5.327-11.3.419.419,0,0,0-.837,0Z" transform="translate(-687.191 -395.375)"/></g><g transform="translate(26.751 49.305)"><path d="M661.322,440.291a18.478,18.478,0,0,0,5.1,7.558c.391.363,1-.223.586-.586a17.755,17.755,0,0,1-4.909-7.2c-.167-.5-.976-.279-.781.223Z" transform="translate(-661.292 -439.785)"/></g><g transform="translate(31.796 47.947)"><path d="M679.664,444.616c2.4.865,4.8-1.171,6.275-2.873,1.562-1.785,2.928-4.1,2.259-6.526a.42.42,0,0,0-.809.223c.558,2.12-.7,4.183-2.064,5.717-1.283,1.45-3.375,3.4-5.466,2.65-.474-.2-.7.614-.2.809Z" transform="translate(-679.379 -434.914)"/></g><g transform="translate(7.301 24.104)"><path d="M592.513,354.215c-.362-1.032.474-2.147,1.088-2.873a2.11,2.11,0,0,1,3.4-.279c1.227,1.339,1.562,3.737,1.729,5.466.112,1.2-.307,2.733.39,3.793a5.335,5.335,0,0,0,3.458,2.064c.53.112.753-.7.223-.809a5.437,5.437,0,0,1-1.924-.753,2.7,2.7,0,0,1-1.255-2.594,22.71,22.71,0,0,0-.223-3.068c-.279-1.7-.753-3.877-2.148-5.02a2.786,2.786,0,0,0-3.765.028c-1.088.948-2.343,2.761-1.813,4.239.223.53,1.032.307.837-.2Z" transform="translate(-591.551 -349.425)"/></g><g transform="translate(15.151 18.687)"><path d="M620.535,334.186a3.485,3.485,0,0,1,6.359-1.841c.307.446,1.032.028.725-.418a4.327,4.327,0,0,0-7.921,2.259c-.028.53.809.53.837,0Z" transform="translate(-619.698 -330.003)"/></g><g transform="translate(10.563 28.918)"><path d="M604.879,368.892a3.148,3.148,0,0,1-.641-1.757c-.223.112-.418.251-.641.363a2.05,2.05,0,0,1,.948,1.841,6.422,6.422,0,0,1,.53-.39,1.6,1.6,0,0,1-1-1.757c-.2.084-.418.167-.614.251a2.125,2.125,0,0,1,.809.837,1.684,1.684,0,0,1,.167.53c0,.139,0-.028-.028-.084-.056-.112-.111-.2-.167-.307-.223-.5-.948-.056-.725.418a1.173,1.173,0,0,0,.948.837A.773.773,0,0,0,605.3,369a2.591,2.591,0,0,0-1.395-2.259.41.41,0,0,0-.614.251,2.478,2.478,0,0,0,1.59,2.789.413.413,0,0,0,.53-.39,2.884,2.884,0,0,0-1.367-2.566.438.438,0,0,0-.642.363,3.868,3.868,0,0,0,.753,2.175c.335.39,1.06-.028.725-.474Z" transform="translate(-603.247 -366.685)"/></g><g transform="translate(18.589 23.434)"><path d="M633.44,349.332a1.478,1.478,0,0,1-.307-.586c0-.056-.056-.39,0-.418s.2.418.223.446a.926.926,0,0,1-.084.669,4.465,4.465,0,0,1,.586-.139,1.818,1.818,0,0,1-.92-1.9c-.223.112-.418.251-.641.363a1.72,1.72,0,0,1,1.032,1.98c.167-.084.335-.2.5-.279a1.259,1.259,0,0,1-.837-.948c0-.028,0-.279-.028-.279a1.355,1.355,0,0,1-.2.084c.028.056.084.139.112.2a2.164,2.164,0,0,1,.084.948c.251-.112.474-.2.725-.307a1.875,1.875,0,0,1-.586-.725c-.251-.474-.976-.056-.725.418a2.767,2.767,0,0,0,.725.892.429.429,0,0,0,.725-.307,2.23,2.23,0,0,0-.418-1.729.708.708,0,0,0-1.171.139c-.446.976.5,2.12,1.367,2.426a.388.388,0,0,0,.5-.279,2.5,2.5,0,0,0-1.422-2.928.438.438,0,0,0-.641.363,2.66,2.66,0,0,0,1.339,2.622.446.446,0,0,0,.586-.139,2.1,2.1,0,0,0,.084-1.59c-.167-.418-.53-.865-1-.809-1.227.139-.7,1.9-.2,2.454.363.363.948-.251.586-.641Z" transform="translate(-632.024 -347.023)"/></g><g transform="translate(27.14 43.731)"><path d="M662.828,425.8c0,.028,0,.028-.028.056.167-.084.335-.2.5-.279-.028,0-.056-.028-.084-.028.084.2.167.418.251.614.056-.112.809-.474,1.032-.669a8.476,8.476,0,0,0,1.311-1.506,16.038,16.038,0,0,0,2.036-3.709c-.279-.084-.53-.139-.809-.223-.837,2.4-1.422,5.745-3.765,7.168l.586.586c.558-.837,1.116-1.7,1.673-2.538a.424.424,0,0,0-.669-.5l-1.367,1.45.586.586c.418-.5.809-1.032,1.171-1.562.279-.39-.335-.865-.669-.5a4.352,4.352,0,0,1-1.283.976c.223.112.418.251.641.363,0-.084-.028-.167-.028-.251-.056-.53-.892-.53-.837,0,0,.084.028.167.028.251a.432.432,0,0,0,.641.363,5.6,5.6,0,0,0,1.45-1.116l-.669-.5c-.335.474-.669.948-1.032,1.395-.335.418.223,1,.586.586l1.367-1.45-.669-.5c-.558.837-1.116,1.7-1.673,2.538a.434.434,0,0,0,.586.586c2.566-1.562,3.235-5.02,4.156-7.67.167-.53-.614-.7-.809-.223a14.71,14.71,0,0,1-2.343,3.988c-.474.558-1.227.865-1.673,1.367-.112.112-.223.139-.279.279a.415.415,0,0,0,.251.614c.028,0,.056.028.084.028a.4.4,0,0,0,.5-.279c0-.028,0-.028.028-.056.223-.5-.586-.725-.781-.223Z" transform="translate(-662.685 -419.8)"/></g><g transform="translate(28.285 47.49)"><path d="M668.885,434.677a2.05,2.05,0,0,0,.5-.892c.139-.5-.5-.669-.753-.335l-1.757,2.343c-.335.418.391.837.725.418l1.757-2.343-.753-.335a1.388,1.388,0,0,1-.279.53c-.39.446.223,1.032.558.614Z" transform="translate(-666.791 -433.276)"/></g><g transform="translate(16.34 32.657)"><path d="M625.116,389.41c-.781-1.562.056-2.148,1.618-2.566a3.261,3.261,0,0,0,.558-.167,2.954,2.954,0,0,0,1.339-1.618,20.127,20.127,0,0,1,1.283-2.845c1.227-1.869,3.4-1.785,4.1.446a6.949,6.949,0,0,1-1.646,6.415,6.479,6.479,0,0,1-2.677,1.98,3.307,3.307,0,0,1-2.622-.167c-.641-.279-1.813-.837-1.98-1.562-.112-.53-.92-.307-.809.223.307,1.45,2.482,2.343,3.793,2.538a5,5,0,0,0,3.849-1.367c2.426-2.008,3.932-5.55,2.761-8.618-1.255-3.319-4.658-2.092-5.913.53-.391.809-.586,2.175-1.227,2.761-.809.753-1.841.474-2.677,1.06-1.171.837-1.06,2.315-.474,3.458.251.418.976,0,.725-.5Z" transform="translate(-623.962 -380.092)"/></g><g transform="translate(16.539 32.774)"><path d="M625.072,388.849c4.323-.112,6.415-4.128,7.363-7.809a.42.42,0,0,0-.809-.223c-.837,3.291-2.649,7.084-6.554,7.2-.53.028-.53.865,0,.837Z" transform="translate(-624.675 -380.514)"/></g><path class="d" d="M570.848,294.376c-.5.279-3.542-3.04-4.825-7.474a17.051,17.051,0,0,1-.335-7.921,24.229,24.229,0,0,1,2.064-4.6A27.968,27.968,0,0,1,581.195,263a16.133,16.133,0,0,0-2.175,2.538,16.812,16.812,0,0,0-2.064,3.793,34.283,34.283,0,0,1,3.207-2.4,40.685,40.685,0,0,1,7.363-3.9c-.335,1.422-.7,2.845-1.032,4.239.781-.446,1.869-1.088,3.207-1.729,1.478-.7,4.518-2.148,4.992-1.506.14.2-.028.418-.279,1.227a12.042,12.042,0,0,0-.5,2.538,21.791,21.791,0,0,1,2.9-.279,23.18,23.18,0,0,1,3.18.084c-.335,1.283-.669,2.538-1,3.821a9.745,9.745,0,0,1,2.594,1.506,10.459,10.459,0,0,1,3.57,6.192,12.115,12.115,0,0,1-.753,6.275c-1.339-2.845-3.988-3.96-5.494-3.263a3.466,3.466,0,0,0-1.869,3.124,2.656,2.656,0,0,0,.2.781,25.493,25.493,0,0,0-4.379-3.207,17.888,17.888,0,0,0-6.917-2.733,15.256,15.256,0,0,0-10.654,3.04c-1.729,1.227-4.546,3.207-5.048,6.359C569.732,292.145,571.238,294.181,570.848,294.376Z" transform="translate(-565.374 -263)"/><path class="h" d="M649.346,294.247a36.787,36.787,0,0,1,2.677,8.813c.669,3.793,1.506,8.674-.53,14.084a21.285,21.285,0,0,1-6.247,8.7,9.492,9.492,0,0,0,4.183-1.088,9.622,9.622,0,0,0,4.3-4.63,21.236,21.236,0,0,1,4.407,6.136,21.008,21.008,0,0,1,1.506,4.3,9.308,9.308,0,0,0,2.789-4.407,8.774,8.774,0,0,0,.335-2.371,11.369,11.369,0,0,1-3.235-2.677,12.387,12.387,0,0,1-2.594-7.753c.056-1.562.39-1.59.641-3.988a26.069,26.069,0,0,0,0-5.16,2.662,2.662,0,0,0,2.482.112c.641-.391.809-1.088,1.394-4.63.307-1.9.474-2.845.53-3.347a21.286,21.286,0,0,0,.335-5.16,10.513,10.513,0,0,0-3.124-5.8,10.319,10.319,0,0,0-3.012-2.036c.335-1.171.641-2.371.976-3.542a32.392,32.392,0,0,1-4.072,3.988c-2.51,2.008-3.96,2.482-5.69,4.407a14.71,14.71,0,0,0-2.594,4.072C646.334,292.964,647.84,293.606,649.346,294.247Z" transform="translate(-622.648 -275.115)"/><path class="n" d="M603.558,264.1a10.879,10.879,0,0,0-4.741,4.072,10.359,10.359,0,0,0-1.506,4.3,11.154,11.154,0,0,0,.641,5.16,21.95,21.95,0,0,1,2.9-9.9A22.28,22.28,0,0,1,603.558,264.1Z" transform="translate(-588.351 -263.793)"/><path class="i" d="M678.918,367.8c-.084-.028-.251.279-.865,2.4-.837,2.873-1.283,4.992-1.534,6.052a36.9,36.9,0,0,1-2.12,6.331c1.98.39,3.96.781,5.941,1.143A22.431,22.431,0,0,1,678.416,377C677.886,372.119,679.2,367.852,678.918,367.8Z" transform="translate(-643.993 -338.567)"/></g></g></g></svg>