<svg id="Group_7612" data-name="Group 7612" xmlns="http://www.w3.org/2000/svg" width="20" height="20" viewBox="0 0 20 20">
  <path id="Path_4618" data-name="Path 4618" d="M0,0H20V20H0Z" fill="none"/>
  <path id="Path_4621" data-name="Path 4621" d="M2,18a6.476,6.476,0,0,1,12.952,0H13.333a4.857,4.857,0,1,0-9.714,0Zm6.476-7.286a4.857,4.857,0,1,1,4.857-4.857A4.856,4.856,0,0,1,8.476,10.714Zm0-1.619A3.238,3.238,0,1,0,5.238,5.857,3.237,3.237,0,0,0,8.476,9.1Zm6.706,3A6.478,6.478,0,0,1,19,18H17.381a4.858,4.858,0,0,0-2.864-4.431l.665-1.476Zm-.557-9.14a4.454,4.454,0,0,1-1.292,8.553V9.876a2.833,2.833,0,0,0,.843-5.35Z" transform="translate(-1 0.8)" fill="#2942d6"/>
</svg>
