<svg xmlns="http://www.w3.org/2000/svg" width="17.855" height="14.853" viewBox="0 0 17.855 14.853">
  <path id="Path_4907" data-name="Path 4907" d="M10.109,3a9.081,9.081,0,0,1,8.928,7.427,9.079,9.079,0,0,1-17.855,0A9.08,9.08,0,0,1,10.109,3Zm0,13.2a7.43,7.43,0,0,0,7.242-5.775,7.431,7.431,0,0,0-14.485,0A7.431,7.431,0,0,0,10.109,16.2Zm0-2.063a3.713,3.713,0,1,1,3.713-3.713A3.713,3.713,0,0,1,10.109,14.14Zm0-1.65a2.063,2.063,0,1,0-2.063-2.063A2.063,2.063,0,0,0,10.109,12.49Z" transform="translate(-1.181 -3)" fill="#2942d6"/>
</svg>
